<svg xmlns="http://www.w3.org/2000/svg" viewBox="0 0 194.11 194.01"><defs><style>.cls-1{fill:#1d75bb;}.cls-2{fill:#010206;}</style></defs><title>Recurso 5</title><g id="Capa_2" data-name="Capa 2"><g id="Capa_1-2" data-name="Capa 1"><path class="cls-1" d="M194.11,96.71A96.42,96.42,0,0,1,96,194C43.25,193.4.31,151.89,0,96.62-.3,43.31,43.78.68,94.55,0,150.47-.73,193.78,41.73,194.11,96.71Zm-87.82,64.63c.79,0,1.58,0,2.36,0,10.6-.4,20.91-1.94,30-8,8-5.37,12.55-12.71,12.28-22.61a42,42,0,0,0-9.84-25.94c-6.1-7.52-12.93-14.47-17.91-22.86C116,69.8,117.6,58,127.88,48.54A53,53,0,0,1,145,38.07c3.18-1.22,6.43-2.26,9.63-3.41.77-.28,2.17-.32,2-1.28-.25-1.26-1.59-.41-2.44-.52a4.56,4.56,0,0,0-1,0,288.69,288.69,0,0,0-35.23,5.15c-17.12,3.8-33.84,8.68-49,17.81-17.49,10.53-30.3,24.37-32,45.93C35.62,117,40,130.22,51.2,140.67,66.65,155.11,85.56,160.75,106.29,161.34Z"/><path class="cls-2" d="M106.29,161.34c-20.73-.59-39.64-6.23-55.09-20.67C40,130.22,35.62,117,36.83,101.8c1.73-21.56,14.54-35.4,32-45.93,15.16-9.13,31.88-14,49-17.81a288.69,288.69,0,0,1,35.23-5.15,4.56,4.56,0,0,1,1,0c.85.11,2.19-.74,2.44.52.18,1-1.22,1-2,1.28-3.2,1.15-6.45,2.19-9.63,3.41a53,53,0,0,0-17.07,10.47C117.6,58,116,69.8,123.14,81.91c5,8.39,11.81,15.34,17.91,22.86a42,42,0,0,1,9.84,25.94c.27,9.9-4.28,17.24-12.28,22.61-9.05,6.08-19.36,7.62-30,8C107.87,161.37,107.08,161.34,106.29,161.34Zm-32.67-30c-3.07.22-6.77,0-8.28,3.74-1.33,3.29,1,5.62,3.24,7.65,7.24,6.67,16.09,9.54,25.65,10.63a13.78,13.78,0,0,0,6.2-.68c3.54-1.26,4.61-3.91,2.9-7.25a14.16,14.16,0,0,0-4.09-4.71A45,45,0,0,0,73.62,131.32Z"/><path class="cls-1" d="M73.62,131.32a45,45,0,0,1,25.62,9.38,14.16,14.16,0,0,1,4.09,4.71c1.71,3.34.64,6-2.9,7.25a13.78,13.78,0,0,1-6.2.68c-9.56-1.09-18.41-4-25.65-10.63-2.21-2-4.57-4.36-3.24-7.65C66.85,131.33,70.55,131.54,73.62,131.32Z"/></g></g></svg>