<svg xmlns="http://www.w3.org/2000/svg" viewBox="0 0 98.61 96.71"><defs><style>.cls-1{fill:#224998;}</style></defs><title>Dragon</title><g id="Capa_2" data-name="Capa 2"><g id="Capa_1-2" data-name="Capa 1"><path class="cls-1" d="M81.3,85.05c3.5-10.34,5.18-19.82-.87-29C80,74.45,72.84,88.36,54.68,94.56,44,98.2,33.56,97.32,23.79,91.11c4.83-1.08,9.77-.62,14.55-1.9C56,84.48,64.13,65.72,54.59,51.37c-5-7.56-17.3-10.84-28.54-7.57-7.33,2.13-12.87,6.61-17.2,12.86-1.06,1.52-1.12,5.3-3.92,4C2.3,59.36,1.06,56.15,1.36,53c.13-1.29.94-2.49,1.27-3.77C3.72,45,4.09,40.94,1.19,37.31c-1.53-1.93-1.32-4-.81-6.14C4,15.58,20.08,1.62,36.87,0,34,4.25,29.24,6.8,28.25,12.71,34.29,11.08,40,9.49,47,10.79c-4.5,2.73-8.49,4.81-10.7,8.82-.54,1-1.63,1.91-1,3.13s2.1.6,3.16.53c6.89-.45,13.63-.06,20,3.08,2.53,1.25,4,.35,4.86-2.28,2.77-9,.13-16.57-6.5-23,12.4-2.71,32.49,12.06,38.72,28.32C103,48.84,96.27,76.69,81.3,85.05ZM10.39,39.39c2.84-2.63,5.4-4.76,7.66-7.16,2.72-2.91-.48-5.35-1.78-6.76-1.69-1.81-3,1.17-3.6,2.47C11,31.45,9.25,35.09,10.39,39.39Z"/></g></g></svg>