<svg xmlns="http://www.w3.org/2000/svg" viewBox="0 0 193.71 194.01"><defs><style>.cls-1{fill:#f0df1b;}.cls-2{fill:#111303;}</style></defs><title>Recurso 23</title><g id="Capa_2" data-name="Capa 2"><g id="Capa_1-2" data-name="Capa 1"><path class="cls-1" d="M97.61,0c52.65.07,96.21,44.08,96.1,97.26-.11,51.81-40.78,96.85-97,96.75C41.14,193.91.19,150,0,97.52-.19,43.25,42.82-.07,97.61,0ZM44.84,114.64l.91,1c1.71-.46,3.43-.87,5.11-1.39,16.37-5,32.73-10.15,49.12-15.16,1.49-.45,3.26-1.9,4.65-.51s-.07,3.18-.47,4.66c-5.35,19.5-10.82,39-16.25,58.45-.34,1.19-1.35,2.68.34,3.35,1.32.51,1.76-1,2.38-2,2.18-3.45,4.61-6.76,6.68-10.27q24.64-41.7,49.16-83.46c.69-1.18,2.38-2.57,1.17-3.91s-2.81.06-4.2.46c-15.32,4.47-30.64,9-46,13.47-1.36.4-2.94,1.73-4.16.38s.13-2.83.55-4.18c4.73-15.25,9.55-30.48,14.28-45.73.47-1.52,1.61-3,.51-5.67Z"/><path class="cls-2" d="M44.84,114.64l63.81-90.46c1.1,2.68,0,4.15-.51,5.67-4.73,15.25-9.55,30.48-14.28,45.73-.42,1.35-1.7,2.92-.55,4.18s2.8,0,4.16-.38c15.33-4.47,30.65-9,46-13.47,1.39-.4,3.08-1.71,4.2-.46s-.48,2.73-1.17,3.91q-24.52,41.76-49.16,83.46c-2.07,3.51-4.5,6.82-6.68,10.27-.62,1-1.06,2.49-2.38,2-1.69-.67-.68-2.16-.34-3.35,5.43-19.48,10.9-38.95,16.25-58.45.4-1.48,1.83-3.29.47-4.66s-3.16.06-4.65.51c-16.39,5-32.75,10.11-49.12,15.16-1.68.52-3.4.93-5.11,1.39Z"/></g></g></svg>