<svg id="Capa_1" data-name="Capa 1" xmlns="http://www.w3.org/2000/svg" viewBox="0 0 1102.76 421.69"><defs><style>.cls-1{fill:#7d3e8f;}.cls-2{fill:#0d020d;}.cls-3{fill:#ebe9db;}.cls-4{fill:#0c0c0b;}.cls-5{fill:#f0df1b;}.cls-6{fill:#111303;}.cls-7{fill:#e42d26;}.cls-8{fill:#130200;}.cls-9{fill:#25963a;}.cls-10{fill:#000902;}.cls-11{fill:#1d75bb;}.cls-12{fill:#010206;}.cls-13{fill:#cc569a;}.cls-14{fill:#13030a;}.cls-15{fill:#d7461d;}.cls-16{fill:#150400;}.cls-17{fill:#899198;}.cls-18{fill:#0b0d0e;}.cls-19{fill:#193754;}.cls-20{fill:#010204;}</style></defs><title>elementos</title><path class="cls-1" d="M371.16,270.37c53.37,0,97.95,43.47,97.32,96.09-.65,54.87-41,97.7-97.43,97.79-55.3.08-96.29-45-96.67-95.33C274,314,317.12,270.41,371.16,270.37Zm2.78,154.9c5.55.27,13.85-1.33,21.93-4.08,23.94-8.16,40.22-25.14,52.94-46.19,2-3.23,1.5-6.34-.09-9.47-9.28-18.25-21.26-34.19-39.14-44.87-22.81-13.64-46.45-15.24-70.42-3.47-20.18,9.92-33.64,26.54-44.09,46-2.81,5.22-2.66,9.54.51,14.39A144.06,144.06,0,0,0,308,394.46C324.68,413.41,345.08,424.81,373.94,425.27Z" transform="translate(-37.41 -47.52)"/><path class="cls-2" d="M373.94,425.27c-28.86-.46-49.26-11.86-66-30.81a144.06,144.06,0,0,1-12.37-16.87c-3.17-4.85-3.32-9.17-.51-14.39,10.45-19.47,23.91-36.09,44.09-46,24-11.77,47.61-10.17,70.42,3.47,17.88,10.68,29.86,26.62,39.14,44.87,1.59,3.13,2,6.24.09,9.47-12.72,21.05-29,38-52.94,46.19C387.79,423.94,379.49,425.54,373.94,425.27Zm-30-91.44c-.75-.19-1.14-.43-1.34-.33-14.66,7.63-25.11,19.29-32.52,33.88-1.14,2.25-.42,4.16.95,6,6.37,8.58,13.07,16.9,21.94,23,16.1,11.13,33.59,16.7,53.26,11.87,20.28-5,34.3-18.2,45.48-35,1.66-2.5,1.54-4.82.08-7.45a85.59,85.59,0,0,0-20.27-24.43c-5.5-4.56-11.17-9.06-19.25-11.25,22.83,17.12,20.68,44,9.55,57.94-13.66,17.09-36.23,20.65-53.38,8.41C328.8,382.46,327.08,359.55,343.9,333.83Zm25,47.17c10.56.07,18.57-7.59,19.06-17.14.46-9.13-7.11-18-16.24-19-1.09-.12-2.62-.16-3.28.47-1.11,1,.41,2,.91,2.95,5.65,10.59-.08,20.55-12.1,20.63-3.73,0-3.48,1.28-2,3.7C358.55,378.23,363.41,381.15,368.89,381Z" transform="translate(-37.41 -47.52)"/><path class="cls-1" d="M343.9,333.83c-16.82,25.72-15.1,48.63,4.5,62.62,17.15,12.24,39.72,8.68,53.38-8.41,11.13-13.93,13.28-40.82-9.55-57.94,8.08,2.19,13.75,6.69,19.25,11.25a85.59,85.59,0,0,1,20.27,24.43c1.46,2.63,1.58,5-.08,7.45-11.18,16.85-25.2,30.06-45.48,35-19.67,4.83-37.16-.74-53.26-11.87-8.87-6.12-15.57-14.44-21.94-23-1.37-1.85-2.09-3.76-.95-6,7.41-14.59,17.86-26.25,32.52-33.88C342.76,333.4,343.15,333.64,343.9,333.83Z" transform="translate(-37.41 -47.52)"/><path class="cls-1" d="M369,381c-5.48.15-10.34-2.77-13.68-8.37-1.45-2.42-1.7-3.67,2-3.7,12-.08,17.75-10,12.1-20.63-.5-.94-2-1.9-.91-2.95.66-.63,2.19-.59,3.29-.47,9.12,1,16.69,9.85,16.23,19C387.55,373.41,379.53,381.07,369,381Z" transform="translate(-37.41 -47.52)"/><path class="cls-3" d="M677,150.65c.49,54.13-43.19,95.68-95.5,96.19a96,96,0,0,1-97.31-90c-3.62-61.5,43.32-101.38,90.94-103.39C633.15,51,678,95.16,677,150.65ZM518.66,184.18c3.93,1,6.69-.69,9.51-1.47,9.66-2.67,19.35-4.94,29.47-4.35,6,.35,10.13,3.12,12.61,8.91A147.15,147.15,0,0,1,579,215.84c.33,1.6.16,3.44,2,4.94,2.2-10.38,4.24-20.48,8.17-30.05,4.33-10.53,8.07-13,19.34-12.64,9.2.32,18.06,2.53,26.77,5.34,1.57.51,2.92,1.22,4.92.11-3.32-3-6.4-5.87-9.61-8.61-5.46-4.67-10.63-9.61-14.64-15.61-4.58-6.84-4.48-10.78.48-17.27,6.2-8.11,13.73-14.92,21.4-21.6,1.25-1.09,3.36-1.71,3.12-4-2.5-1-4.65.23-6.84.86-9.61,2.78-19.28,5.22-29.41,4.87-6.53-.22-11.59-2.65-14-9.23-1.52-4.21-3.46-8.3-4.7-12.59-2-6.84-3.51-13.81-5.26-20.85-1.62,1.49-1.5,3.42-1.84,5.14a142.25,142.25,0,0,1-8.46,28.14c-2.7,6.3-7.2,9.17-13.87,9.44-11.36.45-22.07-2.56-32.79-5.68-1.71-.5-3.42-1.64-6.26-.91,3,2.58,5.35,4.61,7.69,6.67a149.25,149.25,0,0,1,19.19,19.59c5,6.42,5.4,10.38.78,17.19C538.39,169.13,529.12,176.7,518.66,184.18Z" transform="translate(-37.41 -47.52)"/><path class="cls-4" d="M518.66,184.18c10.46-7.48,19.73-15.05,26.54-25.11,4.62-6.81,4.26-10.77-.78-17.19a149.25,149.25,0,0,0-19.19-19.59c-2.34-2.06-4.72-4.09-7.69-6.67,2.84-.73,4.55.41,6.26.91,10.72,3.12,21.43,6.13,32.79,5.68,6.67-.27,11.17-3.14,13.87-9.44a142.25,142.25,0,0,0,8.46-28.14c.34-1.72.22-3.65,1.84-5.14,1.75,7,3.29,14,5.26,20.85,1.24,4.29,3.18,8.38,4.7,12.59,2.38,6.58,7.44,9,14,9.23,10.13.35,19.8-2.09,29.41-4.87,2.19-.63,4.34-1.86,6.84-.86.24,2.31-1.87,2.93-3.12,4-7.67,6.68-15.2,13.49-21.4,21.6-5,6.49-5.06,10.43-.48,17.27,4,6,9.18,10.94,14.64,15.61,3.21,2.74,6.29,5.63,9.61,8.61-2,1.11-3.35.4-4.92-.11-8.71-2.81-17.57-5-26.77-5.34-11.27-.4-15,2.11-19.34,12.64-3.93,9.57-6,19.67-8.17,30.05-1.81-1.5-1.64-3.34-2-4.94a147.15,147.15,0,0,0-8.77-28.57c-2.48-5.79-6.61-8.56-12.61-8.91-10.12-.59-19.81,1.68-29.47,4.35C525.35,183.49,522.59,185.14,518.66,184.18Z" transform="translate(-37.41 -47.52)"/><path class="cls-5" d="M590.32,261.4c52.66.07,96.21,44.08,96.1,97.26-.11,51.81-40.78,96.85-97,96.75-55.57-.1-96.52-44-96.71-96.49C492.52,304.65,535.53,261.33,590.32,261.4ZM537.56,376l.91,1c1.7-.46,3.42-.87,5.11-1.39,16.37-5.05,32.73-10.15,49.11-15.16,1.49-.45,3.26-1.9,4.65-.51s-.07,3.18-.47,4.66c-5.35,19.5-10.81,39-16.25,58.45-.33,1.19-1.35,2.68.34,3.35,1.32.52,1.77-1,2.39-2,2.17-3.45,4.6-6.76,6.67-10.27q24.66-41.7,49.16-83.46c.69-1.18,2.38-2.57,1.17-3.9s-2.81.05-4.19.45c-15.33,4.47-30.65,9-46,13.47-1.35.4-2.94,1.73-4.16.38s.13-2.83.55-4.18c4.74-15.25,9.55-30.48,14.29-45.73.47-1.52,1.61-3,.51-5.67Z" transform="translate(-37.41 -47.52)"/><path class="cls-6" d="M537.56,376l63.81-90.46c1.1,2.69,0,4.15-.51,5.67-4.74,15.25-9.55,30.48-14.29,45.73-.42,1.35-1.69,2.92-.55,4.18s2.81,0,4.16-.38c15.33-4.47,30.65-9,46-13.47,1.38-.4,3.07-1.71,4.19-.45s-.48,2.72-1.17,3.9Q614.67,372.52,590,414.22c-2.07,3.51-4.5,6.82-6.67,10.27-.62,1-1.07,2.5-2.39,2-1.69-.67-.67-2.16-.34-3.35,5.44-19.48,10.9-38.95,16.25-58.45.4-1.48,1.83-3.29.47-4.66s-3.16.06-4.65.51c-16.38,5-32.74,10.11-49.11,15.16-1.69.52-3.41.93-5.11,1.39Z" transform="translate(-37.41 -47.52)"/><path class="cls-7" d="M702.11,155.07c.83-54,45.39-98,99.08-96.49s96,44.89,94.7,99.26c-1.3,53.43-43.36,95.56-98.49,94.54C742,251.36,702.87,207.14,702.11,155.07Zm133.74,27.56c.59-1.19,1.62-1.53,2.46-2.1,7.14-4.82,13.62-10.35,18.35-17.66,5.91-9.15,7-18.63,1.69-28.47-.41-.77-.75-1.7-1.8-1.68s-1.21,1.05-1.59,1.82a28.45,28.45,0,0,1-9.12,10.6,40.3,40.3,0,0,1-20.52,7c-3.81.31-3.9.35-3.56-3.5a108.32,108.32,0,0,0,0-21.68c-1.41-12.71-5-24.61-13.58-34.49A42.59,42.59,0,0,0,791.59,81c-.63-.25-1.37-.82-1.94-.2s.13,1.41.51,2c.76,1.27,1.57,2.51,2.31,3.8,1.83,3.22,3.23,6.6,3.16,10.39-.11,5.12-3.16,8.52-6.92,11.44-6.75,5.25-13.61,10.4-19.3,16.84-7.44,8.41-11.12,17.81-7.55,29.16.56,1.77,2.09,3.18,2,5.5-3.23-1.73-5.47-4.24-7.66-6.77-4.54-5.22-7-11.22-6.27-18.26a29.43,29.43,0,0,1,3.53-11.14c.39-.73,1.39-1.61.62-2.3-1-.86-1.67.45-2.34,1a37.22,37.22,0,0,0-3.54,3.1c-9.81,9.57-14.89,21-13.09,34.87,1.31,10.12,5.56,19,11.79,27,.81,1,2.82,2.19,2,3.27s-2.68-.25-4-.81A59,59,0,0,1,729,179.8c-.57-.5-1.24-1.34-2-.81s-.26,1.46,0,2.18c1,2.71,1.82,5.46,3,8.1,7.69,17.9,20.25,30.69,38.95,37a87.07,87.07,0,0,0,32.24,4.26c17.2-.78,32.3-6.77,45-18.51,12.24-11.32,20-25.4,24.94-41.14.28-.88,1.09-2,.17-2.66-1.15-.84-1.84.51-2.56,1.15a52.57,52.57,0,0,1-27.19,13.1A13.17,13.17,0,0,1,835.85,182.63Z" transform="translate(-37.41 -47.52)"/><path class="cls-8" d="M835.85,182.63a13.17,13.17,0,0,0,5.67-.13,52.57,52.57,0,0,0,27.19-13.1c.72-.64,1.41-2,2.56-1.15.92.68.11,1.78-.17,2.66-5,15.74-12.7,29.82-24.94,41.14-12.69,11.74-27.79,17.73-45,18.51a87.07,87.07,0,0,1-32.24-4.26c-18.7-6.34-31.26-19.13-38.95-37-1.13-2.64-2-5.39-3-8.1-.26-.72-.75-1.67,0-2.18s1.43.31,2,.81a59,59,0,0,0,15.82,10.09c1.31.56,3.12,1.92,4,.81s-1.17-2.23-2-3.27c-6.23-8-10.48-16.89-11.79-27-1.8-13.91,3.28-25.3,13.09-34.87a37.22,37.22,0,0,1,3.54-3.1c.67-.51,1.38-1.82,2.34-1,.77.69-.23,1.57-.62,2.3a29.43,29.43,0,0,0-3.53,11.14c-.69,7,1.73,13,6.27,18.26,2.19,2.53,4.43,5,7.66,6.77.13-2.32-1.4-3.73-2-5.5-3.57-11.35.11-20.75,7.55-29.16,5.69-6.44,12.55-11.59,19.3-16.84,3.76-2.92,6.81-6.32,6.92-11.44.07-3.79-1.33-7.17-3.16-10.39-.74-1.29-1.55-2.53-2.31-3.8-.38-.64-1.22-1.28-.51-2s1.31,0,1.94.2A42.59,42.59,0,0,1,808.2,92.51c8.61,9.88,12.17,21.78,13.58,34.49a108.32,108.32,0,0,1,0,21.68c-.34,3.85-.25,3.81,3.56,3.5a40.3,40.3,0,0,0,20.52-7,28.45,28.45,0,0,0,9.12-10.6c.38-.77.49-1.8,1.59-1.82s1.39.91,1.8,1.68c5.28,9.84,4.22,19.32-1.69,28.47-4.73,7.31-11.21,12.84-18.35,17.66C837.47,181.1,836.44,181.44,835.85,182.63ZM767.54,191l.92.7c6.19,4.26,6.78,9.28,1.76,14.87-.41.45-.84.89-1.23,1.36a6.39,6.39,0,0,0-.79,8,20.08,20.08,0,0,0,10.49,9.07c11.41,4.5,23,4.25,34.61.72a17.29,17.29,0,0,0,8.32-5.22,8.58,8.58,0,0,0,1.83-8.77,49.28,49.28,0,0,0-3.33-7.09c-3.52-6.93-2.38-13.21,3.31-18.49.47-.44,1.22-.74,1-1.83a12.3,12.3,0,0,0-4.55.37,21.87,21.87,0,0,0-11.69,7c-.42.49-.79,1.44-1.52,1.23-.92-.26-.63-1.3-.65-2a15.32,15.32,0,0,0-7.39-13.09,20.4,20.4,0,0,1-1.6-1.35c-1.91-1.53-2.16-3.48-1.42-5.65a21.61,21.61,0,0,1,3.91-7.05c.41-.49,1.17-1.05.69-1.8s-1.29-.29-1.93-.15a29.91,29.91,0,0,0-18.15,11.52,5.64,5.64,0,0,0-.17,7,46.88,46.88,0,0,0,4.31,4.91c3.55,4.07,3.6,9.43.13,13.33-1.14,1.28-1.87,1.92-2.75-.4A12.15,12.15,0,0,0,767.54,191Z" transform="translate(-37.41 -47.52)"/><path class="cls-7" d="M767.54,191a12.15,12.15,0,0,1,14.15,7.22c.88,2.32,1.61,1.68,2.75.4,3.47-3.9,3.42-9.26-.13-13.33a46.88,46.88,0,0,1-4.31-4.91,5.64,5.64,0,0,1,.17-7,29.91,29.91,0,0,1,18.15-11.52c.64-.14,1.45-.59,1.93.15s-.28,1.31-.69,1.8a21.61,21.61,0,0,0-3.91,7.05c-.74,2.17-.49,4.12,1.42,5.65a20.4,20.4,0,0,0,1.6,1.35,15.32,15.32,0,0,1,7.39,13.09c0,.73-.27,1.77.65,2,.73.21,1.1-.74,1.52-1.23a21.87,21.87,0,0,1,11.69-7,12.3,12.3,0,0,1,4.55-.37c.18,1.09-.57,1.39-1,1.83-5.69,5.28-6.83,11.56-3.31,18.49a49.28,49.28,0,0,1,3.33,7.09,8.58,8.58,0,0,1-1.83,8.77,17.29,17.29,0,0,1-8.32,5.22c-11.6,3.53-23.2,3.78-34.61-.72a20.08,20.08,0,0,1-10.49-9.07,6.39,6.39,0,0,1,.79-8c.39-.47.82-.91,1.23-1.36,5-5.59,4.43-10.61-1.76-14.87Z" transform="translate(-37.41 -47.52)"/><path class="cls-9" d="M816.27,273c54,0,97.22,43,97.08,97-.15,55.52-43.75,97.39-97.65,97.09-54.32-.31-96.26-43.27-96.39-97.21S763.18,272.51,816.27,273Zm68,110.89a74.31,74.31,0,0,0-2.43-18.1C878,351,871.09,337.44,863.42,324.26a310.26,310.26,0,0,0-18.64-27.88c-1.63-2.2-3.25-3.21-6.19-2.11-6.64,2.48-13.17,5.19-19.56,8.21-19.41,9.17-37.66,20.11-52.46,35.95-9.43,10.08-16.35,21.55-18,35.64-1.44,12.15,1.49,22.89,10,31.85a57.85,57.85,0,0,0,24.35,14.91c4.44,1.44,7.51,3.52,7.81,8.85.21,3.87,1.62,7.67,2.47,11.5a3.84,3.84,0,0,0,3.15,3.11A89.42,89.42,0,0,0,810,446.7c3.4.28,4.09-.35,3.8-3.81-.33-4.09-1-8.15-1.43-12.23-.38-3.68-.22-3.91,3.42-4.24a165.8,165.8,0,0,0,22.28-3.3c11-2.52,21.8-5.81,31.17-12.51S884.68,395.69,884.28,383.92Z" transform="translate(-37.41 -47.52)"/><path class="cls-10" d="M884.28,383.92c.4,11.77-5.77,20.09-15,26.69s-20.12,10-31.17,12.51a165.8,165.8,0,0,1-22.28,3.3c-3.64.33-3.8.56-3.42,4.24.43,4.08,1.1,8.14,1.43,12.23.29,3.46-.4,4.09-3.8,3.81a89.42,89.42,0,0,1-13.66-2.41,3.84,3.84,0,0,1-3.15-3.11c-.85-3.83-2.26-7.63-2.47-11.5-.3-5.33-3.37-7.41-7.81-8.85a57.85,57.85,0,0,1-24.35-14.91c-8.55-9-11.48-19.7-10-31.85,1.67-14.09,8.59-25.56,18-35.64,14.8-15.84,33-26.78,52.46-35.95,6.39-3,12.92-5.73,19.56-8.21,2.94-1.1,4.56-.09,6.19,2.11a310.26,310.26,0,0,1,18.64,27.88c7.67,13.18,14.55,26.7,18.43,41.56A74.31,74.31,0,0,1,884.28,383.92Zm-24.1,8.14a56.37,56.37,0,0,0-28.66-5.85,78.32,78.32,0,0,0-22.69,5.05c-2.65,1-3.43.35-3.07-2.39s.84-5.7,1.25-8.56a9.05,9.05,0,0,1,4.89-7c2.68-1.47,5.3-3.05,8.1-4.31,11.42-5.17,23.2-6.87,35.49-3.65,2.49.66,5,1.29,8,2.06-1.93-2.48-4.46-3-6.64-4.12a46.45,46.45,0,0,0-26.39-5,53.35,53.35,0,0,0-15.84,4.43c-1.22.54-2.48.74-2.15-1.16.7-4.06,1.64-7.94,5.43-10.61,11-7.76,23-11.66,36.52-10,.47,0,1.07.26,1.27-.53a2.43,2.43,0,0,0-.58-.48,8.69,8.69,0,0,0-1.45-.6,45.45,45.45,0,0,0-31.06,1.22c-.79.3-1.59,1-2.43.33-1-.87-.16-1.8.16-2.63q3.88-9.83,7.84-19.63c.25-.64.83-1.34-.12-1.76-.67-.29-1.06.43-1.38.9-4.68,6.72-9.37,13.43-13,20.8-1.62,3.28-2,3.41-5,1.22a35.48,35.48,0,0,0-13-6.09,26.35,26.35,0,0,0-9.14-.15c.93,1.57,2.08,1.61,3,2,4.69,1.75,8.49,4.73,12.07,8.16,4.72,4.52,6.28,9.26,2.58,15.29-1.92,3.12-1.64,3.36-4.68,1.38a36.24,36.24,0,0,0-14-5.59,33.57,33.57,0,0,0-14,.84c-.55.14-1.42.2-1.41.92,0,.95,1,.72,1.63.87a6.84,6.84,0,0,0,.79.05,35.92,35.92,0,0,1,24.3,12c1.55,1.71,2.46,3.6,2,6-.66,3.25-1.28,6.51-2,9.76s-1,3.3-3.87,1.59c-8.64-5.13-17.8-7.6-27.85-5.17-.85.2-1.88.19-2.34,1.43,1.76.4,3.36.81,5,1.12a42.59,42.59,0,0,1,23.58,12.73,12.89,12.89,0,0,1,3.89,9.67c-.26,6.78,1.52,13.15,4.25,19.29.31.7.38,1.79,1.82,1.71a148.26,148.26,0,0,0,1.09-14.87,11,11,0,0,1,4.73-9.4,61,61,0,0,1,41-12.47C852.12,391,856.1,391.77,860.18,392.06Z" transform="translate(-37.41 -47.52)"/><path class="cls-9" d="M860.18,392.06c-4.08-.29-8.06-1.08-12.14-1.28a61,61,0,0,0-41,12.47,11,11,0,0,0-4.73,9.4,148.26,148.26,0,0,1-1.09,14.87c-1.44.08-1.51-1-1.82-1.71-2.73-6.14-4.51-12.51-4.25-19.29a12.89,12.89,0,0,0-3.89-9.67,42.59,42.59,0,0,0-23.58-12.73c-1.62-.31-3.22-.72-5-1.12.46-1.24,1.49-1.23,2.34-1.43,10.05-2.43,19.21,0,27.85,5.17,2.87,1.71,3.21,1.64,3.87-1.59s1.29-6.51,2-9.76c.49-2.37-.42-4.26-2-6a35.92,35.92,0,0,0-24.3-12,6.84,6.84,0,0,1-.79-.05c-.63-.15-1.6.08-1.63-.87,0-.72.86-.78,1.41-.92a33.57,33.57,0,0,1,14-.84,36.24,36.24,0,0,1,14,5.59c3,2,2.76,1.74,4.68-1.38,3.7-6,2.14-10.77-2.58-15.29-3.58-3.43-7.38-6.41-12.07-8.16-.94-.35-2.09-.39-3-2a26.35,26.35,0,0,1,9.14.15,35.48,35.48,0,0,1,13,6.09c3,2.19,3.41,2.06,5-1.22,3.64-7.37,8.33-14.08,13-20.8.32-.47.71-1.19,1.38-.9,1,.42.37,1.12.12,1.76q-3.95,9.81-7.84,19.63c-.32.83-1.18,1.76-.16,2.63.84.71,1.64,0,2.43-.33a45.45,45.45,0,0,1,31.06-1.22,8.69,8.69,0,0,1,1.45.6,2.43,2.43,0,0,1,.58.48c-.2.79-.8.58-1.27.53-13.54-1.62-25.52,2.28-36.52,10-3.79,2.67-4.73,6.55-5.43,10.61-.33,1.9.93,1.7,2.15,1.16a53.35,53.35,0,0,1,15.84-4.43,46.45,46.45,0,0,1,26.39,5c2.18,1.1,4.71,1.64,6.64,4.12-3-.77-5.46-1.4-8-2.06-12.29-3.22-24.07-1.52-35.49,3.65-2.8,1.26-5.42,2.84-8.1,4.31a9.05,9.05,0,0,0-4.89,7c-.41,2.86-.89,5.7-1.25,8.56s.42,3.38,3.07,2.39a78.32,78.32,0,0,1,22.69-5.05A56.37,56.37,0,0,1,860.18,392.06Z" transform="translate(-37.41 -47.52)"/><path class="cls-11" d="M1115.13,161.21A96.42,96.42,0,0,1,1017,258.5c-52.78-.6-95.71-42.11-96-97.37-.3-53.32,43.77-95.94,94.54-96.62C1071.48,63.77,1114.8,106.24,1115.13,161.21Zm-87.82,64.64c.79,0,1.57,0,2.36,0,10.59-.4,20.9-1.94,29.95-8,8-5.38,12.56-12.72,12.29-22.62a42,42,0,0,0-9.85-25.94c-6.09-7.52-12.93-14.47-17.91-22.86-7.18-12.11-5.53-23.87,4.74-33.37A52.91,52.91,0,0,1,1066,102.58c3.17-1.23,6.42-2.26,9.62-3.42.78-.28,2.17-.32,2-1.28-.24-1.26-1.58-.4-2.43-.52a4.65,4.65,0,0,0-1.05,0,290.2,290.2,0,0,0-35.22,5.15c-17.12,3.8-33.84,8.68-49,17.81-17.49,10.54-30.3,24.37-32,45.93-1.22,15.19,3.18,28.42,14.36,38.87C987.66,219.61,1006.58,225.26,1027.31,225.85Z" transform="translate(-37.41 -47.52)"/><path class="cls-12" d="M1027.31,225.85c-20.73-.59-39.65-6.24-55.1-20.68-11.18-10.45-15.58-23.68-14.36-38.87,1.72-21.56,14.53-35.39,32-45.93,15.17-9.13,31.89-14,49-17.81a290.2,290.2,0,0,1,35.22-5.15,4.65,4.65,0,0,1,1.05,0c.85.12,2.19-.74,2.43.52.18,1-1.21,1-2,1.28-3.2,1.16-6.45,2.19-9.62,3.42A52.91,52.91,0,0,0,1048.89,113c-10.27,9.5-11.92,21.26-4.74,33.37,5,8.39,11.82,15.34,17.91,22.86a42,42,0,0,1,9.85,25.94c.27,9.9-4.28,17.24-12.29,22.62-9,6.07-19.36,7.61-29.95,8C1028.88,225.87,1028.1,225.85,1027.31,225.85Zm-32.68-30c-3.07.22-6.76,0-8.27,3.74-1.33,3.29,1,5.62,3.23,7.65,7.24,6.67,16.09,9.54,25.65,10.64a13.93,13.93,0,0,0,6.2-.69c3.55-1.26,4.61-3.9,2.91-7.25a14.3,14.3,0,0,0-4.1-4.71A44.94,44.94,0,0,0,994.63,195.82Z" transform="translate(-37.41 -47.52)"/><path class="cls-11" d="M994.63,195.82a44.94,44.94,0,0,1,25.62,9.38,14.3,14.3,0,0,1,4.1,4.71c1.7,3.35.64,6-2.91,7.25a13.93,13.93,0,0,1-6.2.69c-9.56-1.1-18.41-4-25.65-10.64-2.21-2-4.56-4.36-3.23-7.65C987.87,195.83,991.56,196,994.63,195.82Z" transform="translate(-37.41 -47.52)"/><path class="cls-13" d="M364.55,247c-49.82,1.74-98.2-41.61-97.48-98.23.67-52.31,43.47-96.11,97.52-95.63,53.72.47,97.2,42,96.23,99.15C459.93,204.7,418.65,246.83,364.55,247Zm.85-30.75c-1.8-4.17-3-7.36-4.52-10.44C352.3,188,338.09,175.36,322,164.55c-13.48-9.06-20.44-21.44-19.7-37.92a57,57,0,0,1,3.43-17c.73-2,1.71-5-.13-6-2.11-1.08-3.48,1.89-4.66,3.52-7.4,10.35-10.5,22.14-11.11,34.68-.85,17.54,1.37,34.52,12.87,48.56,14.23,17.35,33,28.64,55,31.25,24.84,2.94,46.67-6.81,64-24.28,18.09-18.19,21.48-41.35,17.69-65.85a51.42,51.42,0,0,0-11.82-25.72c-.78-.92-1.56-2.72-3-1.89-1.33.73-.58,2.38-.28,3.64,1,4.36,2.42,8.68,3.12,13.1,2.76,17.41-2.13,31.6-17,42.28C391.37,176.67,373.18,191.49,365.4,216.26ZM397.31,107l-.65-1.11c-.79-.08-1.58-.22-2.38-.24-16.27-.51-21.49-4.35-27.14-19.78-1-2.68-1.68-5.58-4.12-8.63-6.07,17.31-14.9,30.63-35.59,30.37,19.06,11.19,29.64,27.85,36.09,47.83C369.38,135.34,380.05,118.94,397.31,107Z" transform="translate(-37.41 -47.52)"/><path class="cls-14" d="M365.4,216.26c7.78-24.77,26-39.59,45.1-53.35,14.83-10.68,19.72-24.87,17-42.28-.7-4.42-2.08-8.74-3.12-13.1-.3-1.26-1-2.91.28-3.64,1.48-.83,2.26,1,3,1.89a51.42,51.42,0,0,1,11.82,25.72c3.79,24.5.4,47.66-17.69,65.85-17.37,17.47-39.2,27.22-64,24.28-22.08-2.61-40.81-13.9-55-31.25-11.5-14-13.72-31-12.87-48.56.61-12.54,3.71-24.33,11.11-34.68,1.18-1.63,2.55-4.6,4.66-3.52,1.84.94.86,4,.13,6a57,57,0,0,0-3.43,17c-.74,16.48,6.22,28.86,19.7,37.92,16.08,10.81,30.29,23.41,38.87,41.27C362.36,208.9,363.6,212.09,365.4,216.26Z" transform="translate(-37.41 -47.52)"/><path class="cls-14" d="M397.31,107c-17.26,11.91-27.93,28.31-33.79,48.44-6.45-20-17-36.64-36.09-47.83C348.12,107.9,357,94.58,363,77.27c2.44,3,3.14,6,4.12,8.63,5.65,15.43,10.87,19.27,27.14,19.78.8,0,1.59.16,2.38.24Z" transform="translate(-37.41 -47.52)"/><path class="cls-15" d="M134,270.28c54.16,0,97.26,42.88,97.48,96.91.22,53.12-44,97.18-97.58,97.15-52.39,0-96.63-44.64-96.47-97.3C37.56,313.72,81,270.24,134,270.28Zm36.56,93.52v0c-5.16,0-10.33-.12-15.48,0-6.58.19-11,4.84-11.05,11.5,0,3.16-.17,6.34.08,9.48.31,3.84-1.21,6.48-3.92,9.16-3.08,3-6.6,2.65-10.21,2.74-8.34.2-12.2,4-12.38,12.16,0,1.66-.23,3.32-.29,5-.2,5.13-3.59,7.74-7.83,9.22-5,1.75-6,3.35-5.4,9.69.43,4.69,3.76,4.38,6.94,4.39q23.22,0,46.45,0c6.75,0,7.06-.34,7.09-7,0-8.43,4-12.54,12.36-12.64,3.16,0,6.33.06,9.49,0,6.73-.16,11.8-5.12,11.55-11.79-.38-9.82-.29-19.62,0-29.43.22-7.61-4.76-12.4-12.42-12.5C180.53,363.75,175.53,363.8,170.54,363.8Zm-66.32-.61v0c-3.33,0-6.66,0-10,0-3.5,0-7,0-10.49,0-7.54.05-12.57,4.91-12.61,12.32Q71,390.8,71.12,406c0,7,4.21,11.12,11.21,11.24,5.66.1,11.33.1,17,.09,6.92,0,11.91-4.92,12.12-11.86.34-11.94,3.32-14.87,15.18-15q10.95-.09,11.15-10.92c0-1.16,0-2.33,0-3.49,0-8-5-12.9-13.09-12.92C117.88,363.17,111.05,363.19,104.22,363.19Zm61.07-35.11c0-7.47,0-14.95,0-22.42,0-4.63-2.2-7.77-7-8.08a106.15,106.15,0,0,0-13.93,0c-4.37.28-7.17,2.75-7.19,7.35-.07,15.27-.09,30.55,0,45.82.05,4.47,2.64,7.09,7.19,7.31,4.14.2,8.3.35,12.44.2,5.86-.21,8.32-2.8,8.42-8.79C165.38,342.36,165.29,335.22,165.29,328.08Zm-33.87-.25c0-7.32.05-14.64,0-22-.05-5.87-2.21-8.15-8.07-8.4-3.82-.17-7.66-.19-11.48,0-5.82.28-8.1,2.51-8.15,8.43q-.15,22.2.08,44.42c0,5.35,2.19,7.53,7.58,7.89a101.87,101.87,0,0,0,12,0c5.81-.27,8-2.64,8.07-8.46C131.47,342.47,131.43,335.15,131.42,327.83Zm65.75,4.61h0c0-6.15.13-12.31,0-18.46-.15-5.41-2.69-7.91-8.05-8.13-4-.17-8-.19-12,0-5.26.22-8,2.85-8.07,8.19-.17,12.14-.1,24.28-.05,36.42,0,4.8,2.75,7.45,7.39,7.76a110,110,0,0,0,13,0c5.36-.28,7.67-2.81,7.78-8.32C197.26,344.09,197.17,338.26,197.17,332.44Zm-97.86-.61h0c0-5.82.13-11.64,0-17.46-.15-5.61-2.77-8.28-8.26-8.53-4-.19-8-.18-12,0-5,.18-7.77,2.72-7.84,7.8q-.27,18.45,0,36.9c.07,5.19,2.59,7.46,7.86,7.72,3.81.19,7.65.16,11.47,0,6.14-.18,8.66-2.75,8.77-9C99.39,343.47,99.31,337.65,99.31,331.83Z" transform="translate(-37.41 -47.52)"/><path class="cls-16" d="M170.54,363.8c5,0,10-.05,15,0,7.66.1,12.64,4.89,12.42,12.5-.29,9.81-.38,19.61,0,29.43.25,6.67-4.82,11.63-11.55,11.79-3.16.08-6.33,0-9.49,0-8.33.1-12.33,4.21-12.36,12.64,0,6.67-.34,7-7.09,7q-23.23,0-46.45,0c-3.18,0-6.51.3-6.94-4.39-.58-6.34.4-7.94,5.4-9.69,4.24-1.48,7.63-4.09,7.83-9.22.06-1.66.25-3.32.29-5,.18-8.16,4-12,12.38-12.16,3.61-.09,7.13.3,10.21-2.74,2.71-2.68,4.23-5.32,3.92-9.16-.25-3.14-.11-6.32-.08-9.48.08-6.66,4.47-11.31,11.05-11.5,5.15-.14,10.32,0,15.48,0Z" transform="translate(-37.41 -47.52)"/><path class="cls-16" d="M104.22,363.19c6.83,0,13.66,0,20.48,0,8.11,0,13.07,4.92,13.09,12.92,0,1.16,0,2.33,0,3.49q-.2,10.83-11.15,10.92c-11.86.11-14.84,3-15.18,15-.21,6.94-5.2,11.85-12.12,11.86-5.66,0-11.33,0-17-.09-7-.12-11.17-4.28-11.21-11.24q-.08-15.22,0-30.47c0-7.41,5.07-12.27,12.61-12.32,3.5,0,7,0,10.49,0,3.33,0,6.66,0,10,0Z" transform="translate(-37.41 -47.52)"/><path class="cls-16" d="M165.29,328.08c0,7.14.09,14.28,0,21.42-.1,6-2.56,8.58-8.42,8.79-4.14.15-8.3,0-12.44-.2-4.55-.22-7.14-2.84-7.19-7.31-.13-15.27-.11-30.55,0-45.82,0-4.6,2.82-7.07,7.19-7.35a106.15,106.15,0,0,1,13.93,0c4.78.31,6.95,3.45,7,8.08C165.33,313.13,165.29,320.61,165.29,328.08Z" transform="translate(-37.41 -47.52)"/><path class="cls-16" d="M131.42,327.83c0,7.32.05,14.64,0,22,0,5.82-2.26,8.19-8.07,8.46a101.87,101.87,0,0,1-12,0c-5.39-.36-7.53-2.54-7.58-7.89q-.21-22.21-.08-44.42c0-5.92,2.33-8.15,8.15-8.43,3.82-.19,7.66-.17,11.48,0,5.86.25,8,2.53,8.07,8.4C131.47,313.19,131.42,320.51,131.42,327.83Z" transform="translate(-37.41 -47.52)"/><path class="cls-16" d="M197.17,332.44c0,5.82.09,11.65,0,17.47-.11,5.51-2.42,8-7.78,8.32a110,110,0,0,1-13,0c-4.64-.31-7.37-3-7.39-7.76,0-12.14-.12-24.28.05-36.42.08-5.34,2.81-8,8.07-8.19,4-.16,8-.14,12,0,5.36.22,7.9,2.72,8.05,8.13.17,6.15,0,12.31,0,18.46Z" transform="translate(-37.41 -47.52)"/><path class="cls-16" d="M99.31,331.83c0,5.82.08,11.64,0,17.45-.11,6.25-2.63,8.82-8.77,9-3.82.11-7.66.14-11.47,0-5.27-.26-7.79-2.53-7.86-7.72q-.27-18.45,0-36.9c.07-5.08,2.81-7.62,7.84-7.8,4-.15,8-.16,12,0,5.49.25,8.11,2.92,8.26,8.53.17,5.82,0,11.64,0,17.46Z" transform="translate(-37.41 -47.52)"/><path class="cls-17" d="M38.38,144.07c.08-54.48,43.06-96.67,98.35-96.55,52.47.11,95.43,43.75,95.27,96.75-.17,53.47-43.47,97.13-96.24,97C81.28,241.23,38.3,198.3,38.38,144.07Zm96.15-25.38c-10.31,0-20.63,0-30.94,0-5.73,0-6.14.6-3.32,5.52,10.39,18.19,20.92,36.3,31.29,54.5,2.05,3.6,3.39,3.85,5.56.06,10.48-18.33,21.14-36.55,31.7-54.83,2.56-4.43,2-5.22-3.35-5.24C155.16,118.66,144.84,118.69,134.53,118.69Zm.22,98.34v-.17c3.33,0,6.74-.47,10,.09,8.95,1.55,14.25-2.07,18.81-9.84,8-13.55,8.62-8.31.07-23-2.34-4-3.81-3.9-6.12,0-2.61,4.44-5.37,8.8-7.76,13.34-1.72,3.27-4.15,4.38-7.7,4.22a93,93,0,0,0-14,.07c-4.57.51-7.19-1.27-9.2-5.09-2.41-4.56-5.12-9-7.69-13.42-1.38-2.41-2.82-3.37-4.63-.35-2,3.28-4,6.53-6,9.8-1.31,2.14-.78,4.07.53,6,3.15,4.7,6.34,9.38,9.29,14.2,1.88,3.08,4.42,4.19,7.9,4.1C123.76,216.93,129.26,217,134.75,217Zm-33-113.9c4.43,0,7.76.05,11.08,0,2.89-.06,3.49-1.42,2-3.85-2.05-3.43-4.05-6.88-6.09-10.31-1.56-2.62-3.88-3.28-6.83-2.92-4.94.6-9.91,1.1-14.89,1.36a7.48,7.48,0,0,0-6.77,4.17c-4.15,7.39-8,15.07-12.91,21.9-5.9,8.14-6.61,15.2-1.52,24.41,3.81,6.88,7.31,10.34,15.35,9.62s8.2-.21,4.48-7.27a19.28,19.28,0,0,0-1.88-3.51c-6.68-8-5-15.15.12-23.72C88.7,105.08,93.57,100.72,101.78,103.13Zm65.35,0V103a37.24,37.24,0,0,0,6-.06c5.3-.87,8.33,1.46,10.53,6.13a106.39,106.39,0,0,0,7.06,12,6.79,6.79,0,0,1,.11,7.89c-2.78,4.73-5.34,9.59-8,14.4-1.5,2.71-.74,4,2.41,4,3.49-.05,7-.07,10.48,0,2.68.08,4.3-1.12,5.41-3.52q3.36-7.25,7-14.33a6.69,6.69,0,0,0-.08-7Q198.94,107,190,91.45c-1.34-2.31-3-3.79-5.86-4-5.64-.36-11.27-.91-16.89-1.46a5.13,5.13,0,0,0-5.44,2.67c-2.08,3.59-4.16,7.19-6.3,10.76-1.58,2.62-.62,3.67,2.15,3.69C160.81,103.16,164,103.15,167.13,103.15Z" transform="translate(-37.41 -47.52)"/><path class="cls-18" d="M134.53,118.69c10.31,0,20.63,0,30.94,0,5.39,0,5.91.81,3.35,5.24-10.56,18.28-21.22,36.5-31.7,54.83-2.17,3.79-3.51,3.54-5.56-.06-10.37-18.2-20.9-36.31-31.29-54.5-2.82-4.92-2.41-5.5,3.32-5.52C113.9,118.66,124.22,118.69,134.53,118.69Z" transform="translate(-37.41 -47.52)"/><path class="cls-18" d="M134.75,217c-5.49,0-11-.1-16.48,0-3.48.09-6-1-7.9-4.1-3-4.82-6.14-9.5-9.29-14.2-1.31-2-1.84-3.89-.53-6,2-3.27,4-6.52,6-9.8,1.81-3,3.25-2.06,4.63.35,2.57,4.47,5.28,8.86,7.69,13.42,2,3.82,4.63,5.6,9.2,5.09a93,93,0,0,1,14-.07c3.55.16,6-.95,7.7-4.22,2.39-4.54,5.15-8.9,7.76-13.34,2.31-3.93,3.78-4,6.12,0,8.55,14.66,7.89,9.42-.07,23-4.56,7.77-9.86,11.39-18.81,9.84-3.23-.56-6.64-.09-10-.09Z" transform="translate(-37.41 -47.52)"/><path class="cls-18" d="M101.78,103.13c-8.21-2.41-13.08,2-17.82,9.87-5.13,8.57-6.8,15.72-.12,23.72a19.28,19.28,0,0,1,1.88,3.51c3.72,7.06,3.67,6.54-4.48,7.27s-11.54-2.74-15.35-9.62c-5.09-9.21-4.38-16.27,1.52-24.41,5-6.83,8.76-14.51,12.91-21.9a7.48,7.48,0,0,1,6.77-4.17c5-.26,10-.76,14.89-1.36,3-.36,5.27.3,6.83,2.92,2,3.43,4,6.88,6.09,10.31,1.45,2.43.85,3.79-2,3.85C109.54,103.18,106.21,103.13,101.78,103.13Z" transform="translate(-37.41 -47.52)"/><path class="cls-18" d="M167.13,103.15c-3.16,0-6.32,0-9.48,0-2.77,0-3.73-1.07-2.15-3.69,2.14-3.57,4.22-7.17,6.3-10.76A5.13,5.13,0,0,1,167.24,86c5.62.55,11.25,1.1,16.89,1.46,2.85.18,4.52,1.66,5.86,4q9,15.54,18.07,31a6.69,6.69,0,0,1,.08,7q-3.64,7.1-7,14.33c-1.11,2.4-2.73,3.6-5.41,3.52-3.49-.1-7-.08-10.48,0-3.15,0-3.91-1.26-2.41-4,2.64-4.81,5.2-9.67,8-14.4a6.79,6.79,0,0,0-.11-7.89,106.39,106.39,0,0,1-7.06-12c-2.2-4.67-5.23-7-10.53-6.13a37.24,37.24,0,0,1-6,.06Z" transform="translate(-37.41 -47.52)"/><path class="cls-19" d="M946.26,370.23c1.31-57.23,49.28-97.92,102.87-95,53,2.88,93.93,48.76,90.87,103-2.79,49.42-44.53,94.68-103.59,90.76C983.75,465.48,945.25,421.14,946.26,370.23ZM1023,312c-.89-.46-1-.62-1.17-.6-22.94,5-46.59,27.51-49,51.73-2.55,25.15,7.57,43.92,27.64,57.71,13.62,9.36,29,13.18,45.74,12.51,22.15-.88,40.5-9,54.92-25.86,11.19-13.11,15.17-28.67,12.45-45.13-4.41-26.64-21.89-42.27-46.66-50.69-1.11-.38-2.49-1-3.27,0-1,1.24.54,2,1.24,2.84a30.48,30.48,0,0,1,7.4,23.81c-1.33,14.38-16.44,26.84-31,25.7A29.62,29.62,0,0,1,1019,317.67C1020.21,315.79,1021.59,314,1023,312Z" transform="translate(-37.41 -47.52)"/><path class="cls-20" d="M1023,312c-1.45,2-2.83,3.84-4.09,5.72A29.62,29.62,0,0,0,1041.34,364c14.51,1.14,29.62-11.32,31-25.7a30.48,30.48,0,0,0-7.4-23.81c-.7-.83-2.21-1.6-1.24-2.84.78-1,2.16-.4,3.27,0,24.77,8.42,42.25,24.05,46.66,50.69,2.72,16.46-1.26,32-12.45,45.13-14.42,16.89-32.77,25-54.92,25.86-16.75.67-32.12-3.15-45.74-12.51-20.07-13.79-30.19-32.56-27.64-57.71,2.45-24.22,26.1-46.75,49-51.73C1022,311.33,1022.15,311.49,1023,312Z" transform="translate(-37.41 -47.52)"/></svg>