<svg xmlns="http://www.w3.org/2000/svg" viewBox="0 0 193.81 193.85"><defs><style>.cls-1{fill:#e42d26;}.cls-2{fill:#130200;}</style></defs><title>Recurso 7</title><g id="Capa_2" data-name="Capa 2"><g id="Capa_1-2" data-name="Capa 1"><path class="cls-1" d="M0,96.52c.82-54,45.39-98,99.08-96.48s96,44.89,94.7,99.26c-1.3,53.43-43.37,95.55-98.49,94.54C39.9,192.81.75,148.6,0,96.52Zm133.74,27.56c.58-1.18,1.62-1.53,2.46-2.09,7.14-4.83,13.62-10.35,18.34-17.67,5.91-9.14,7-18.63,1.69-28.47-.41-.76-.75-1.69-1.79-1.68s-1.21,1-1.59,1.82a28.32,28.32,0,0,1-9.13,10.6,40.25,40.25,0,0,1-20.52,7c-3.81.31-3.9.35-3.55-3.5a109.17,109.17,0,0,0,0-21.69c-1.42-12.71-5-24.61-13.58-34.48A42.35,42.35,0,0,0,89.47,22.44c-.62-.25-1.37-.82-1.93-.2-.71.77.12,1.41.5,2,.76,1.27,1.58,2.51,2.31,3.8,1.83,3.22,3.24,6.61,3.16,10.39-.1,5.12-3.16,8.52-6.92,11.45C79.84,55.17,73,60.31,67.29,66.75c-7.44,8.42-11.11,17.82-7.54,29.17.55,1.77,2.08,3.18,2,5.5-3.23-1.74-5.47-4.25-7.66-6.77-4.54-5.23-7-11.23-6.27-18.26A29.34,29.34,0,0,1,51.3,65.24c.4-.73,1.39-1.61.63-2.29-1-.86-1.67.44-2.35.95A35.85,35.85,0,0,0,46.05,67C36.23,76.58,31.16,88,33,101.87c1.31,10.12,5.56,19,11.79,27,.81,1.05,2.81,2.19,2,3.27s-2.69-.24-4-.81a59,59,0,0,1-15.81-10.08c-.57-.51-1.24-1.34-2-.82s-.25,1.46,0,2.18c1,2.71,1.82,5.47,3,8.11,7.69,17.89,20.24,30.68,38.95,37A87.05,87.05,0,0,0,99.05,172c17.21-.78,32.3-6.77,45-18.51,12.25-11.33,20-25.41,25-41.15.27-.88,1.09-2,.16-2.65-1.15-.85-1.83.5-2.56,1.14A52.39,52.39,0,0,1,139.41,124,13,13,0,0,1,133.74,124.08Z"/><path class="cls-2" d="M133.74,124.08a13,13,0,0,0,5.67-.13,52.39,52.39,0,0,0,27.18-13.1c.73-.64,1.41-2,2.56-1.14.93.67.11,1.77-.16,2.65-5,15.74-12.7,29.82-25,41.15-12.69,11.74-27.78,17.73-45,18.51a87.05,87.05,0,0,1-32.23-4.27c-18.71-6.34-31.26-19.13-38.95-37-1.14-2.64-2-5.4-3-8.11-.25-.72-.75-1.66,0-2.18s1.44.31,2,.82a59,59,0,0,0,15.81,10.08c1.31.57,3.13,1.92,4,.81s-1.17-2.22-2-3.27c-6.23-8-10.48-16.89-11.79-27C31.16,88,36.23,76.58,46.05,67a35.85,35.85,0,0,1,3.53-3.11c.68-.51,1.39-1.81,2.35-.95.76.68-.23,1.56-.63,2.29a29.34,29.34,0,0,0-3.52,11.15c-.69,7,1.73,13,6.27,18.26,2.19,2.52,4.43,5,7.66,6.77.12-2.32-1.41-3.73-2-5.5-3.57-11.35.1-20.75,7.54-29.17,5.7-6.44,12.55-11.58,19.3-16.83,3.76-2.93,6.82-6.33,6.92-11.45.08-3.78-1.33-7.17-3.16-10.39-.73-1.29-1.55-2.53-2.31-3.8-.38-.63-1.21-1.27-.5-2,.56-.62,1.31,0,1.93.2A42.35,42.35,0,0,1,106.09,34c8.6,9.87,12.16,21.77,13.58,34.48a109.17,109.17,0,0,1,0,21.69c-.35,3.85-.26,3.81,3.55,3.5a40.25,40.25,0,0,0,20.52-7A28.32,28.32,0,0,0,152.85,76c.38-.77.49-1.8,1.59-1.82s1.38.92,1.79,1.68c5.29,9.84,4.22,19.33-1.69,28.47-4.72,7.32-11.2,12.84-18.34,17.67C135.36,122.55,134.32,122.9,133.74,124.08Zm-68.32,8.33c.52.39.72.55.93.69,6.18,4.26,6.78,9.29,1.76,14.87-.41.46-.84.9-1.23,1.36a6.4,6.4,0,0,0-.8,8,20,20,0,0,0,10.49,9.07c11.42,4.5,23,4.26,34.62.72a17.29,17.29,0,0,0,8.32-5.22,8.62,8.62,0,0,0,1.83-8.77A48.77,48.77,0,0,0,118,146c-3.52-6.93-2.37-13.21,3.31-18.49.48-.44,1.23-.74,1-1.82a12.09,12.09,0,0,0-4.55.37,21.85,21.85,0,0,0-11.7,7c-.41.5-.78,1.45-1.51,1.24-.93-.26-.64-1.31-.66-2a15.32,15.32,0,0,0-7.38-13.1c-.58-.38-1.06-.91-1.61-1.34-1.9-1.53-2.16-3.49-1.42-5.66a21.64,21.64,0,0,1,3.92-7c.4-.48,1.17-1,.68-1.8s-1.28-.29-1.93-.15a29.91,29.91,0,0,0-18.14,11.52,5.64,5.64,0,0,0-.17,7.05,45.78,45.78,0,0,0,4.31,4.9A9.78,9.78,0,0,1,82.33,140c-1.14,1.28-1.87,1.91-2.75-.41A12.16,12.16,0,0,0,65.42,132.41Z"/><path class="cls-1" d="M65.42,132.41a12.16,12.16,0,0,1,14.16,7.21c.88,2.32,1.61,1.69,2.75.41a9.78,9.78,0,0,0-.13-13.34,45.78,45.78,0,0,1-4.31-4.9,5.64,5.64,0,0,1,.17-7.05A29.91,29.91,0,0,1,96.2,103.22c.65-.14,1.46-.58,1.93.15s-.28,1.32-.68,1.8a21.64,21.64,0,0,0-3.92,7c-.74,2.17-.48,4.13,1.42,5.66.55.43,1,1,1.61,1.34a15.32,15.32,0,0,1,7.38,13.1c0,.72-.27,1.77.66,2,.73.21,1.1-.74,1.51-1.24a21.85,21.85,0,0,1,11.7-7,12.09,12.09,0,0,1,4.55-.37c.18,1.08-.57,1.38-1,1.82-5.68,5.28-6.83,11.56-3.31,18.49a48.77,48.77,0,0,1,3.34,7.09,8.62,8.62,0,0,1-1.83,8.77,17.29,17.29,0,0,1-8.32,5.22c-11.61,3.54-23.2,3.78-34.62-.72a20,20,0,0,1-10.49-9.07,6.4,6.4,0,0,1,.8-8c.39-.46.82-.9,1.23-1.36,5-5.58,4.42-10.61-1.76-14.87C66.14,133,65.94,132.8,65.42,132.41Z"/></g></g></svg>