<svg xmlns="http://www.w3.org/2000/svg" viewBox="0 0 194.11 193.88"><defs><style>.cls-1{fill:#7d3e8f;}.cls-2{fill:#0d020d;}</style></defs><title>Recurso 11</title><g id="Capa_2" data-name="Capa 2"><g id="Capa_1-2" data-name="Capa 1"><path class="cls-1" d="M96.78,0c53.37,0,97.95,43.47,97.32,96.1-.65,54.86-41,97.69-97.43,97.78C41.37,194,.38,148.84,0,98.56-.41,43.65,42.74,0,96.78,0Zm2.78,154.91c5.55.27,13.85-1.33,21.93-4.09,23.94-8.16,40.22-25.14,52.94-46.19,2-3.23,1.5-6.34-.09-9.47C165.06,76.92,153.08,61,135.2,50.29c-22.81-13.64-46.45-15.24-70.42-3.46-20.18,9.92-33.64,26.53-44.09,46-2.81,5.22-2.66,9.54.51,14.39a144.79,144.79,0,0,0,12.37,16.86C50.3,143,70.7,154.44,99.56,154.91Z"/><path class="cls-2" d="M99.56,154.91c-28.86-.47-49.26-11.87-66-30.82A144.79,144.79,0,0,1,21.2,107.23c-3.17-4.85-3.32-9.17-.51-14.39,10.45-19.48,23.91-36.09,44.09-46,24-11.78,47.61-10.18,70.42,3.46C153.08,61,165.06,76.92,174.34,95.16c1.59,3.13,2,6.24.09,9.47-12.72,21.05-29,38-52.94,46.19C113.41,153.58,105.11,155.18,99.56,154.91Zm-30-91.45c-.75-.19-1.14-.43-1.34-.32C53.53,70.76,43.07,82.42,35.66,97c-1.14,2.25-.42,4.16,1,6,6.37,8.58,13.07,16.9,21.94,23,16.1,11.13,33.59,16.7,53.26,11.87,20.28-5,34.3-18.2,45.48-35,1.66-2.49,1.54-4.82.08-7.44A85.5,85.5,0,0,0,137.1,71c-5.5-4.56-11.17-9.05-19.25-11.25,22.83,17.12,20.68,44,9.55,57.94-13.66,17.09-36.23,20.66-53.38,8.41C54.42,112.1,52.7,89.18,69.52,63.46Zm25,47.17c10.56.07,18.57-7.59,19.06-17.14.46-9.12-7.11-18-16.24-19-1.09-.11-2.62-.16-3.28.47-1.11,1,.41,2,.91,3,5.65,10.6-.08,20.56-12.1,20.63-3.73,0-3.48,1.28-2,3.7C84.17,107.86,89,110.78,94.51,110.63Z"/><path class="cls-1" d="M69.52,63.46C52.7,89.18,54.42,112.1,74,126.08c17.15,12.25,39.72,8.68,53.38-8.41,11.13-13.93,13.28-40.82-9.55-57.94,8.08,2.2,13.75,6.69,19.25,11.25a85.5,85.5,0,0,1,20.27,24.44c1.46,2.62,1.58,5-.08,7.44-11.18,16.85-25.2,30.07-45.48,35.05-19.67,4.83-37.16-.74-53.26-11.87C49.68,119.92,43,111.6,36.61,103c-1.37-1.85-2.09-3.76-1-6,7.41-14.59,17.87-26.25,32.52-33.87C68.38,63,68.77,63.27,69.52,63.46Z"/><path class="cls-1" d="M94.59,110.63c-5.48.15-10.34-2.77-13.68-8.37-1.45-2.42-1.7-3.67,2-3.7,12-.07,17.75-10,12.1-20.63-.5-.94-2-1.9-.91-3,.66-.63,2.19-.58,3.29-.47,9.13,1,16.69,9.86,16.23,19C113.17,103,105.15,110.7,94.59,110.63Z"/></g></g></svg>