<svg xmlns="http://www.w3.org/2000/svg" viewBox="0 0 193.77 193.91"><defs><style>.cls-1{fill:#cc569a;}.cls-2{fill:#13030a;}</style></defs><title>Recurso 4</title><g id="Capa_2" data-name="Capa 2"><g id="Capa_1-2" data-name="Capa 1"><path class="cls-1" d="M97.48,193.86C47.67,195.6-.71,152.26,0,95.64.67,43.33,43.47-.47,97.52,0c53.72.48,97.2,42,96.23,99.16C192.86,151.55,151.58,193.68,97.48,193.86Zm.86-30.75c-1.8-4.17-3-7.36-4.53-10.43C85.23,134.81,71,122.22,55,111.41,41.47,102.34,34.5,90,35.24,73.49a57,57,0,0,1,3.44-17c.72-2,1.7-5-.14-6-2.11-1.07-3.48,1.89-4.65,3.53C26.48,64.35,23.38,76.13,22.77,88.67c-.85,17.55,1.37,34.53,12.88,48.56,14.22,17.35,32.95,28.64,55,31.26,24.84,2.94,46.67-6.82,64-24.29,18.09-18.19,21.47-41.35,17.68-65.85A51.37,51.37,0,0,0,160.6,52.64c-.78-.92-1.56-2.72-3-1.9-1.32.74-.58,2.39-.28,3.64,1,4.37,2.43,8.68,3.13,13.1,2.75,17.42-2.13,31.61-17,42.28C124.3,123.53,106.11,138.34,98.34,163.11Zm31.9-109.22-.64-1.12c-.8-.08-1.59-.21-2.39-.24-16.27-.5-21.49-4.34-27.14-19.77-1-2.69-1.68-5.58-4.11-8.63C89.89,41.44,81.05,54.75,60.37,54.5,79.42,65.69,90,82.34,96.45,102.33,102.32,82.19,113,65.8,130.24,53.89Z"/><path class="cls-2" d="M98.34,163.11c7.77-24.77,26-39.58,45.09-53.35,14.84-10.67,19.72-24.86,17-42.28-.7-4.42-2.09-8.73-3.13-13.1-.3-1.25-1-2.9.28-3.64,1.49-.82,2.27,1,3,1.9a51.37,51.37,0,0,1,11.81,25.71c3.79,24.5.41,47.66-17.68,65.85-17.38,17.47-39.21,27.23-64,24.29-22.08-2.62-40.81-13.91-55-31.26-11.51-14-13.73-31-12.88-48.56C23.38,76.13,26.48,64.35,33.89,54c1.17-1.64,2.54-4.6,4.65-3.53,1.84,1,.86,4,.14,6a57,57,0,0,0-3.44,17C34.5,90,41.47,102.34,55,111.41c16.07,10.81,30.28,23.4,38.86,41.27C95.29,155.75,96.54,158.94,98.34,163.11Z"/><path class="cls-2" d="M130.24,53.89C113,65.8,102.32,82.19,96.45,102.33c-6.45-20-17-36.64-36.08-47.83C81.05,54.75,89.89,41.44,96,24.13c2.43,3.05,3.13,5.94,4.11,8.63,5.65,15.43,10.87,19.27,27.14,19.77.8,0,1.59.16,2.39.24Z"/></g></g></svg>