<svg xmlns="http://www.w3.org/2000/svg" viewBox="0 0 193.02 193.48"><defs><style>.cls-1{fill:#ebe9db;}.cls-2{fill:#0c0c0b;}</style></defs><title>Recurso 10</title><g id="Capa_2" data-name="Capa 2"><g id="Capa_1-2" data-name="Capa 1"><path class="cls-1" d="M193,97.28c.49,54.14-43.19,95.69-95.49,96.2a96,96,0,0,1-97.31-90C-3.42,42,43.52,2.11,91.14.1,149.15-2.35,194,41.79,193,97.28ZM34.66,130.82c3.92,1,6.69-.69,9.51-1.47,9.65-2.67,19.35-4.94,29.47-4.35,6,.35,10.13,3.12,12.61,8.91A147.15,147.15,0,0,1,95,162.48c.33,1.6.16,3.44,2,4.94,2.2-10.38,4.24-20.49,8.18-30.06,4.33-10.52,8.06-13,19.34-12.63,9.19.32,18.06,2.53,26.76,5.34,1.58.51,2.93,1.22,4.93.11-3.32-3-6.4-5.87-9.61-8.61C141.12,116.9,136,112,131.94,106c-4.58-6.84-4.49-10.78.48-17.27,6.2-8.11,13.73-14.92,21.39-21.61,1.25-1.08,3.37-1.7,3.12-4-2.49-1-4.65.23-6.83.86-9.62,2.78-19.28,5.22-29.41,4.87-6.53-.23-11.6-2.65-14-9.23-1.52-4.21-3.46-8.3-4.7-12.59-2-6.84-3.51-13.81-5.27-20.85-1.61,1.49-1.49,3.41-1.83,5.14a142.28,142.28,0,0,1-8.47,28.14c-2.69,6.3-7.19,9.17-13.86,9.44-11.36.45-22.07-2.56-32.79-5.68-1.71-.5-3.42-1.64-6.27-.91,3,2.58,5.35,4.61,7.7,6.67A149.88,149.88,0,0,1,60.42,88.52c5,6.42,5.4,10.38.78,17.19C54.39,115.77,45.12,123.34,34.66,130.82Z"/><path class="cls-2" d="M34.66,130.82c10.46-7.48,19.73-15,26.54-25.11,4.62-6.81,4.26-10.77-.78-17.19A149.88,149.88,0,0,0,41.23,68.93c-2.35-2.06-4.72-4.09-7.7-6.67,2.85-.73,4.56.41,6.27.91,10.72,3.12,21.43,6.13,32.79,5.68,6.67-.27,11.17-3.14,13.86-9.44a142.28,142.28,0,0,0,8.47-28.14c.34-1.73.22-3.65,1.83-5.14,1.76,7,3.3,14,5.27,20.85,1.24,4.29,3.18,8.38,4.7,12.59,2.37,6.58,7.44,9,14,9.23,10.13.35,19.79-2.09,29.41-4.87,2.18-.63,4.34-1.87,6.83-.86.25,2.31-1.87,2.93-3.12,4-7.66,6.69-15.19,13.5-21.39,21.61-5,6.49-5.06,10.43-.48,17.27,4,6,9.18,10.94,14.64,15.61,3.21,2.74,6.29,5.63,9.61,8.61-2,1.11-3.35.4-4.93-.11-8.7-2.81-17.57-5-26.76-5.34-11.28-.4-15,2.11-19.34,12.63-3.94,9.57-6,19.68-8.18,30.06-1.8-1.5-1.63-3.34-2-4.94a147.15,147.15,0,0,0-8.77-28.57c-2.48-5.79-6.61-8.56-12.61-8.91-10.12-.59-19.82,1.68-29.47,4.35C41.35,130.13,38.58,131.78,34.66,130.82Z"/></g></g></svg>