<svg xmlns="http://www.w3.org/2000/svg" viewBox="0 0 194.06 194.07"><defs><style>.cls-1{fill:#d7461d;}.cls-2{fill:#150400;}</style></defs><title>Recurso 3</title><g id="Capa_2" data-name="Capa 2"><g id="Capa_1-2" data-name="Capa 1"><path class="cls-1" d="M96.58,0c54.15,0,97.26,42.89,97.48,96.92.22,53.12-44,97.17-97.58,97.15C44.08,194-.15,149.43,0,96.76.15,43.44,43.54,0,96.58,0Zm36.55,93.53v0c-5.16,0-10.32-.12-15.48,0-6.58.18-11,4.83-11,11.49,0,3.17-.18,6.34.08,9.49.31,3.84-1.21,6.48-3.92,9.15-3.09,3-6.61,2.66-10.22,2.74-8.34.21-12.19,4-12.38,12.16,0,1.67-.23,3.32-.29,5-.19,5.12-3.58,7.73-7.83,9.22-5,1.75-6,3.34-5.4,9.69.43,4.68,3.77,4.37,6.94,4.38q23.22.06,46.45,0c6.75,0,7.07-.33,7.09-7,0-8.43,4-12.54,12.36-12.65,3.17,0,6.33.06,9.49,0,6.73-.16,11.81-5.12,11.55-11.78-.37-9.82-.28-19.62,0-29.44.22-7.61-4.75-12.4-12.41-12.5C143.12,93.47,138.13,93.53,133.13,93.53Zm-66.32-.62v0h-10c-3.49,0-7,0-10.49,0-7.54.06-12.56,4.92-12.61,12.33q-.07,15.24,0,30.47c0,7,4.2,11.12,11.21,11.24,5.66.09,11.32.09,17,.08A11.74,11.74,0,0,0,74,135.23c.35-11.94,3.32-14.88,15.18-15q11-.1,11.15-10.92c0-1.17,0-2.33,0-3.5,0-8-5-12.89-13.08-12.92ZM127.89,57.8c0-7.47,0-14.94,0-22.41,0-4.64-2.19-7.77-7-8.09a106.16,106.16,0,0,0-13.93,0c-4.37.28-7.17,2.74-7.19,7.35-.07,15.27-.09,30.54,0,45.82,0,4.46,2.64,7.08,7.18,7.31,4.14.2,8.3.35,12.44.19,5.86-.21,8.32-2.8,8.42-8.79C128,72.08,127.89,64.94,127.89,57.8ZM94,57.56c0-7.32,0-14.65,0-22,0-5.87-2.21-8.14-8.08-8.4-3.82-.16-7.66-.18-11.47,0-5.83.29-8.11,2.52-8.15,8.43q-.17,22.22.08,44.42c.05,5.35,2.18,7.53,7.58,7.9a106.21,106.21,0,0,0,12,0c5.81-.27,8-2.64,8.07-8.46C94.07,72.2,94,64.88,94,57.56Zm65.76,4.61h0c0-6.16.14-12.32,0-18.47-.15-5.4-2.69-7.91-8-8.13-4-.16-8-.19-12,0-5.25.22-8,2.84-8.06,8.18-.17,12.14-.11,24.29,0,36.43,0,4.8,2.75,7.45,7.38,7.76a110,110,0,0,0,13,0c5.37-.28,7.67-2.81,7.78-8.33C159.86,73.81,159.77,68,159.77,62.17ZM61.9,61.55h0c0-5.82.13-11.64,0-17.45-.16-5.62-2.78-8.29-8.27-8.54-4-.18-8-.18-12,0-5,.19-7.76,2.73-7.84,7.8q-.27,18.45,0,36.91c.08,5.19,2.59,7.46,7.86,7.71,3.82.19,7.65.17,11.47,0,6.15-.18,8.66-2.74,8.77-9C62,73.19,61.9,67.37,61.9,61.55Z"/><path class="cls-2" d="M133.13,93.53c5,0,10-.06,15,0,7.66.1,12.63,4.89,12.41,12.5-.28,9.82-.37,19.62,0,29.44.26,6.66-4.82,11.62-11.55,11.78-3.16.08-6.32,0-9.49,0-8.33.11-12.33,4.22-12.36,12.65,0,6.67-.34,7-7.09,7q-23.22,0-46.45,0c-3.17,0-6.51.3-6.94-4.38-.58-6.35.41-7.94,5.4-9.69,4.25-1.49,7.64-4.1,7.83-9.22.06-1.67.25-3.32.29-5,.19-8.15,4-12,12.38-12.16,3.61-.08,7.13.3,10.22-2.74,2.71-2.67,4.23-5.31,3.92-9.15-.26-3.15-.12-6.32-.08-9.49.07-6.66,4.46-11.31,11-11.49,5.16-.15,10.32,0,15.48,0Z"/><path class="cls-2" d="M66.81,92.91H87.3c8.11,0,13.06,4.93,13.08,12.92,0,1.17,0,2.33,0,3.5q-.18,10.82-11.15,10.92c-11.86.1-14.83,3-15.18,15a11.74,11.74,0,0,1-12.12,11.85c-5.66,0-11.32,0-17-.08-7-.12-11.18-4.28-11.21-11.24q-.09-15.24,0-30.47C33.77,97.88,38.79,93,46.33,93c3.5,0,7,0,10.49,0h10Z"/><path class="cls-2" d="M127.89,57.8c0,7.14.09,14.28,0,21.42-.1,6-2.56,8.58-8.42,8.79-4.14.16-8.3,0-12.44-.19-4.54-.23-7.14-2.85-7.18-7.31-.14-15.28-.12-30.55,0-45.82,0-4.61,2.82-7.07,7.19-7.35a106.16,106.16,0,0,1,13.93,0c4.79.32,7,3.45,7,8.09C127.92,42.86,127.89,50.33,127.89,57.8Z"/><path class="cls-2" d="M94,57.56c0,7.32,0,14.64,0,22,0,5.82-2.26,8.19-8.07,8.46a106.21,106.21,0,0,1-12,0c-5.4-.37-7.53-2.55-7.58-7.9q-.22-22.2-.08-44.42c0-5.91,2.32-8.14,8.15-8.43,3.81-.18,7.65-.16,11.47,0,5.87.26,8,2.53,8.08,8.4C94.06,42.91,94,50.24,94,57.56Z"/><path class="cls-2" d="M159.77,62.17c0,5.82.09,11.64,0,17.46-.11,5.52-2.41,8.05-7.78,8.33a110,110,0,0,1-13,0c-4.63-.31-7.36-3-7.38-7.76-.06-12.14-.12-24.29,0-36.43.07-5.34,2.81-8,8.06-8.18,4-.17,8-.14,12,0,5.35.22,7.89,2.73,8,8.13.18,6.15,0,12.31,0,18.47Z"/><path class="cls-2" d="M61.9,61.55c0,5.82.08,11.64,0,17.46-.11,6.25-2.62,8.81-8.77,9-3.82.12-7.65.14-11.47,0-5.27-.25-7.78-2.52-7.86-7.71q-.26-18.45,0-36.91c.08-5.07,2.82-7.61,7.84-7.8,4-.15,8-.15,12,0,5.49.25,8.11,2.92,8.27,8.54.16,5.81,0,11.63,0,17.45Z"/></g></g></svg>