<svg xmlns="http://www.w3.org/2000/svg" viewBox="0 0 193.92 194.14"><defs><style>.cls-1{fill:#193754;}.cls-2{fill:#010204;}</style></defs><title>Recurso 1</title><g id="Capa_2" data-name="Capa 2"><g id="Capa_1-2" data-name="Capa 1"><path class="cls-1" d="M0,95.16C1.32,37.92,49.3-2.77,102.88.15c53,2.88,93.94,48.75,90.88,103-2.79,49.42-44.53,94.69-103.6,90.77C37.51,190.41-1,146.06,0,95.16ZM76.8,36.87c-.89-.46-1-.62-1.18-.59-22.93,5-46.59,27.5-49,51.73-2.54,25.14,7.57,43.91,27.65,57.7,13.61,9.36,29,13.18,45.74,12.52,22.15-.88,40.49-9,54.91-25.86,11.19-13.11,15.18-28.68,12.45-45.14C162.93,60.6,145.44,45,120.67,36.54c-1.11-.38-2.48-1-3.26,0-1,1.24.54,2,1.23,2.83a30.51,30.51,0,0,1,7.41,23.81C124.72,77.6,109.6,90.05,95.1,88.91A29.61,29.61,0,0,1,72.71,42.6C74,40.71,75.34,38.9,76.8,36.87Z"/><path class="cls-2" d="M76.8,36.87c-1.46,2-2.83,3.84-4.09,5.73A29.61,29.61,0,0,0,95.1,88.91c14.5,1.14,29.62-11.31,31-25.7a30.51,30.51,0,0,0-7.41-23.81c-.69-.82-2.2-1.59-1.23-2.83.78-1,2.15-.41,3.26,0C145.44,45,162.93,60.6,167.33,87.23c2.73,16.46-1.26,32-12.45,45.14-14.42,16.89-32.76,25-54.91,25.86-16.76.66-32.13-3.16-45.74-12.52C34.15,131.92,24,113.15,26.58,88c2.45-24.23,26.11-46.76,49-51.73C75.75,36.25,75.91,36.41,76.8,36.87Z"/></g></g></svg>