<svg xmlns="http://www.w3.org/2000/svg" viewBox="0 0 194.03 194.08"><defs><style>.cls-1{fill:#25963a;}.cls-2{fill:#000902;}</style></defs><title>Recurso 6</title><g id="Capa_2" data-name="Capa 2"><g id="Capa_1-2" data-name="Capa 1"><path class="cls-1" d="M97,0C151,0,194.18,43,194,97c-.14,55.52-43.75,97.4-97.65,97.09C42.07,193.77.12,150.81,0,96.86S43.87-.51,97,0Zm68,110.89a74.17,74.17,0,0,0-2.43-18.09c-3.88-14.86-10.75-28.39-18.42-41.56a309.81,309.81,0,0,0-18.65-27.89c-1.62-2.2-3.24-3.21-6.19-2.1-6.63,2.48-13.16,5.18-19.56,8.2-19.4,9.18-37.65,20.12-52.46,36C37.83,75.49,30.9,87,29.23,101c-1.44,12.16,1.49,22.9,10.05,31.86a57.73,57.73,0,0,0,24.35,14.9c4.43,1.45,7.51,3.52,7.8,8.85.22,3.87,1.62,7.67,2.47,11.51a3.88,3.88,0,0,0,3.16,3.11,90.22,90.22,0,0,0,13.66,2.41c3.39.27,4.08-.36,3.8-3.81-.34-4.09-1-8.15-1.43-12.23-.38-3.68-.23-3.92,3.41-4.24a167.17,167.17,0,0,0,22.28-3.3c11.05-2.52,21.8-5.81,31.17-12.51S165.36,122.66,165,110.89Z"/><path class="cls-2" d="M165,110.89c.4,11.77-5.77,20.09-15,26.7s-20.12,10-31.17,12.51a167.17,167.17,0,0,1-22.28,3.3c-3.64.32-3.79.56-3.41,4.24.43,4.08,1.09,8.14,1.43,12.23.28,3.45-.41,4.08-3.8,3.81a90.22,90.22,0,0,1-13.66-2.41,3.88,3.88,0,0,1-3.16-3.11c-.85-3.84-2.25-7.64-2.47-11.51-.29-5.33-3.37-7.4-7.8-8.85a57.73,57.73,0,0,1-24.35-14.9c-8.56-9-11.49-19.7-10-31.86,1.67-14.09,8.6-25.55,18-35.63,14.81-15.84,33.06-26.78,52.46-36,6.4-3,12.93-5.72,19.56-8.2,3-1.11,4.57-.1,6.19,2.1a309.81,309.81,0,0,1,18.65,27.89c7.67,13.17,14.54,26.7,18.42,41.56A74.17,74.17,0,0,1,165,110.89ZM140.87,119a56.38,56.38,0,0,0-28.66-5.84,77.85,77.85,0,0,0-22.69,5c-2.66,1-3.43.34-3.08-2.4s.84-5.7,1.25-8.55a9.06,9.06,0,0,1,4.9-7c2.68-1.48,5.3-3,8.09-4.32,11.43-5.17,23.21-6.87,35.49-3.64l8,2.05c-1.93-2.48-4.46-3-6.64-4.12a46.42,46.42,0,0,0-26.39-5A53.6,53.6,0,0,0,95.26,89.7c-1.23.54-2.48.73-2.16-1.16.7-4.07,1.65-7.94,5.44-10.62,11-7.76,23-11.65,36.51-10,.47.06,1.08.26,1.28-.53a3.29,3.29,0,0,0-.58-.48,10.92,10.92,0,0,0-1.46-.6c-10.5-3.35-20.84-2.72-31.06,1.22-.78.31-1.59,1-2.43.33-1-.86-.15-1.8.17-2.62,2.58-6.56,5.21-13.1,7.83-19.64.26-.63.84-1.34-.12-1.75-.66-.29-1.05.43-1.37.89-4.68,6.72-9.37,13.43-13,20.8-1.62,3.28-2,3.41-5,1.22a35.72,35.72,0,0,0-13-6.09,26.36,26.36,0,0,0-9.14-.14c.93,1.57,2.08,1.6,3,1.95,4.69,1.76,8.5,4.74,12.08,8.16,4.72,4.52,6.28,9.27,2.57,15.3-1.92,3.12-1.64,3.35-4.68,1.38a36,36,0,0,0-14-5.59,33.67,33.67,0,0,0-14,.83c-.55.14-1.43.21-1.41.92,0,1,1,.73,1.63.87a5,5,0,0,0,.78,0,35.87,35.87,0,0,1,24.3,12,6.56,6.56,0,0,1,2,6c-.66,3.25-1.29,6.51-2,9.76s-1,3.29-3.88,1.58c-8.63-5.13-17.8-7.6-27.85-5.17-.84.2-1.88.19-2.33,1.43,1.75.4,3.35.81,5,1.13a42.6,42.6,0,0,1,23.59,12.72,12.89,12.89,0,0,1,3.88,9.68c-.25,6.78,1.53,13.15,4.26,19.28.31.7.38,1.79,1.81,1.71A145,145,0,0,0,83,139.63a11,11,0,0,1,4.72-9.41,61,61,0,0,1,41-12.47C132.8,118,136.79,118.74,140.87,119Z"/><path class="cls-1" d="M140.87,119c-4.08-.29-8.07-1.08-12.14-1.28a61,61,0,0,0-41,12.47A11,11,0,0,0,83,139.63a145,145,0,0,1-1.1,14.86c-1.43.08-1.5-1-1.81-1.71-2.73-6.13-4.51-12.5-4.26-19.28a12.89,12.89,0,0,0-3.88-9.68A42.6,42.6,0,0,0,48.35,111.1c-1.62-.32-3.22-.73-5-1.13.45-1.24,1.49-1.23,2.33-1.43,10-2.43,19.22,0,27.85,5.17,2.88,1.71,3.21,1.65,3.88-1.58s1.29-6.51,2-9.76a6.56,6.56,0,0,0-2-6,35.87,35.87,0,0,0-24.3-12,5,5,0,0,1-.78,0c-.63-.14-1.61.09-1.63-.87,0-.71.86-.78,1.41-.92a33.67,33.67,0,0,1,14-.83,36,36,0,0,1,14,5.59c3,2,2.76,1.74,4.68-1.38,3.71-6,2.15-10.78-2.57-15.3-3.58-3.42-7.39-6.4-12.08-8.16-.93-.35-2.08-.38-3-1.95a26.36,26.36,0,0,1,9.14.14,35.72,35.72,0,0,1,13,6.09c3,2.19,3.4,2.06,5-1.22,3.65-7.37,8.34-14.08,13-20.8.32-.46.71-1.18,1.37-.89,1,.41.38,1.12.12,1.75-2.62,6.54-5.25,13.08-7.83,19.64-.32.82-1.19,1.76-.17,2.62.84.71,1.65,0,2.43-.33,10.22-3.94,20.56-4.57,31.06-1.22a10.92,10.92,0,0,1,1.46.6,3.29,3.29,0,0,1,.58.48c-.2.79-.81.59-1.28.53-13.54-1.61-25.51,2.28-36.51,10-3.79,2.68-4.74,6.55-5.44,10.62-.32,1.89.93,1.7,2.16,1.16a53.6,53.6,0,0,1,15.83-4.44,46.42,46.42,0,0,1,26.39,5c2.18,1.11,4.71,1.64,6.64,4.12l-8-2.05c-12.28-3.23-24.06-1.53-35.49,3.64-2.79,1.27-5.41,2.84-8.09,4.32a9.06,9.06,0,0,0-4.9,7c-.41,2.85-.88,5.7-1.25,8.55s.42,3.39,3.08,2.4a77.85,77.85,0,0,1,22.69-5A56.38,56.38,0,0,1,140.87,119Z"/></g></g></svg>