<svg xmlns="http://www.w3.org/2000/svg" width="108" height="32" viewBox="0 0 108 32" fill="none">
<path d="M77.8003 4.33693L68.5118 21.8093C68.3138 22.1829 67.7378 22.1829 67.5398 21.8093L58.2512 4.33693C58.1612 4.159 57.9812 4.05225 57.7832 4.05225H53.283C52.9769 4.05225 52.7789 4.37251 52.9229 4.6394L67.5578 31.7197C67.7558 32.0934 68.2958 32.0934 68.5118 31.7197L83.1466 4.6394C83.2906 4.37251 83.0926 4.05225 82.7866 4.05225H78.2864C78.0704 4.05225 77.8903 4.159 77.8003 4.33693Z" fill="white"/>
<path d="M83.0749 27.6631L92.3634 10.1907C92.5614 9.81707 93.1375 9.81707 93.3355 10.1907L102.624 27.6631C102.714 27.841 102.894 27.9477 103.092 27.9477H107.592C107.898 27.9477 108.096 27.6275 107.952 27.3606L93.3175 0.280234C93.1195 -0.0934112 92.5794 -0.0934112 92.3634 0.280234L77.7286 27.3606C77.5846 27.6275 77.7826 27.9477 78.0886 27.9477H82.5889C82.7869 27.9299 82.9849 27.8232 83.0749 27.6631Z" fill="white"/>
<path d="M19.5851 16.9343C21.5292 15.9735 22.7353 13.8918 22.7353 11.3474C22.7353 6.98824 19.2971 4.03467 14.4548 4.03467H0.54003C0.234013 4.03467 0 4.26597 0 4.56845V31.4531C0 31.7555 0.234013 31.9869 0.54003 31.9869H13.8608C20.5212 31.9869 24.0314 29.1578 24.0314 23.6065C24.0314 18.1976 19.5851 16.9343 19.5851 16.9343ZM5.22029 8.09138H13.4828C16.5249 8.09138 18.073 9.37245 18.073 11.7567C18.073 14.1409 16.5249 15.4219 13.4828 15.4219H5.22029C4.93228 15.4219 4.68026 15.1906 4.68026 14.8882V8.62516C4.68026 8.32269 4.91428 8.09138 5.22029 8.09138ZM13.5908 27.9301H5.22029C4.91428 27.9301 4.68026 27.6988 4.68026 27.3964V19.9768C4.68026 19.6922 4.91428 19.4431 5.22029 19.4431H13.5908C17.587 19.4431 19.3691 20.564 19.3691 23.6777C19.3511 26.827 17.623 27.9301 13.5908 27.9301Z" fill="white"/>
<path d="M48.1529 16.9343C50.097 15.9735 51.3031 13.8918 51.3031 11.3474C51.3031 6.98824 47.8649 4.03467 43.0226 4.03467H29.0898C28.7838 4.03467 28.5498 4.26597 28.5498 4.56845V31.4531C28.5498 31.7555 28.7838 31.9869 29.0898 31.9869H42.4106C49.071 31.9869 52.5812 29.1578 52.5812 23.6065C52.5992 18.1976 48.1529 16.9343 48.1529 16.9343ZM33.7881 8.09138H42.0506C45.0927 8.09138 46.6408 9.37245 46.6408 11.7567C46.6408 14.1409 45.0927 15.4219 42.0506 15.4219H33.7881C33.4821 15.4219 33.2481 15.1906 33.2481 14.8882V8.62516C33.2481 8.32269 33.4821 8.09138 33.7881 8.09138ZM42.1406 27.9301H33.7701C33.4821 27.9301 33.2301 27.6988 33.2301 27.3964V19.9768C33.2301 19.6922 33.4641 19.4431 33.7701 19.4431H42.1406C46.1368 19.4431 47.9189 20.564 47.9189 23.6777C47.9189 26.827 46.1728 27.9301 42.1406 27.9301Z" fill="white"/>
</svg>