<svg xmlns="http://www.w3.org/2000/svg" width="24" height="24" viewBox="0 0 24 24" fill="none">
<path fill-rule="evenodd" clip-rule="evenodd" d="M15.025 7.69167H13.7471C12.802 7.69167 12.6417 8.16723 12.6417 8.82256V10.2583H14.878L14.5777 12.55H12.6417V18.4167H10.35V12.55H8.33333V10.2583H10.35V8.59889C10.35 6.64694 11.538 5.58333 13.2754 5.58333C14.106 5.58333 14.75 5.64521 15.025 5.67628V7.69167ZM12 1C5.92488 1 1 5.92488 1 12C1 18.0751 5.92488 23 12 23C18.0751 23 23 18.0751 23 12C23 5.92488 18.0751 1 12 1Z" fill="#85C8FF"/>
</svg>