<svg xmlns="http://www.w3.org/2000/svg" width="24" height="24" viewBox="0 0 24 24" fill="none">
<path fill-rule="evenodd" clip-rule="evenodd" d="M12 9.70825C10.7344 9.70825 9.70835 10.7343 9.70835 11.9999C9.70835 13.2657 10.7344 14.2916 12 14.2916C13.2658 14.2916 14.2917 13.2657 14.2917 11.9999C14.2917 10.7343 13.2658 9.70825 12 9.70825ZM18.8337 14.8345C18.8003 15.5663 18.6841 16.0661 18.5141 16.5034C18.3385 16.9554 18.1033 17.3389 17.7211 17.7211C17.3389 18.1033 16.9556 18.3384 16.5034 18.5141C16.0661 18.684 15.5664 18.8002 14.8346 18.8337C14.1013 18.867 13.8672 18.875 12 18.875C10.1329 18.875 9.89873 18.867 9.16548 18.8337C8.43371 18.8002 7.93394 18.684 7.4966 18.5141C7.04459 18.3384 6.66115 18.1033 6.27899 17.7211C5.89674 17.3389 5.66171 16.9554 5.48598 16.5034C5.31594 16.0661 5.1998 15.5663 5.16634 14.8345C5.13288 14.1012 5.125 13.8672 5.125 11.9999C5.125 10.1328 5.13288 9.89873 5.16634 9.16548C5.1998 8.43362 5.31594 7.93394 5.48598 7.4966C5.66171 7.0445 5.89674 6.66106 6.27899 6.2789C6.66115 5.89665 7.04459 5.66162 7.4966 5.48589C7.93394 5.31594 8.43371 5.1998 9.16548 5.16634C9.89873 5.13288 10.1329 5.12491 12 5.12491C13.8672 5.12491 14.1013 5.13288 14.8346 5.16634C15.5664 5.1998 16.0661 5.31594 16.5034 5.48589C16.9556 5.66162 17.3389 5.89665 17.7211 6.2789C18.1033 6.66106 18.3385 7.0445 18.5141 7.4966C18.6841 7.93394 18.8003 8.43362 18.8337 9.16548C18.8671 9.89873 18.875 10.1328 18.875 11.9999C18.875 13.8672 18.8671 14.1012 18.8337 14.8345ZM12 1C5.92497 1 1 5.92479 1 12C1 18.0751 5.92497 23 12 23C18.0752 23 23 18.0751 23 12C23 5.92479 18.0752 1 12 1ZM15.6699 9.15508C15.2143 9.15508 14.8449 8.78566 14.8449 8.33008C14.8449 7.8744 15.2143 7.50508 15.6699 7.50508C16.1257 7.50508 16.495 7.8744 16.495 8.33008C16.495 8.78566 16.1257 9.15508 15.6699 9.15508ZM12 15.5303C10.0503 15.5303 8.46967 13.9498 8.46967 12C8.46967 10.0502 10.0503 8.4695 12 8.4695C13.9498 8.4695 15.5305 10.0502 15.5305 12C15.5305 13.9498 13.9498 15.5303 12 15.5303ZM17.3595 7.94526C17.2348 7.62434 17.0858 7.39535 16.8453 7.15473C16.6046 6.9142 16.3756 6.76524 16.0547 6.64048C15.8125 6.54634 15.4484 6.43432 14.7781 6.4037C14.0531 6.3707 13.8357 6.36365 12 6.36365C10.1643 6.36365 9.94688 6.3707 9.22189 6.4037C8.55171 6.43432 8.18761 6.54634 7.94534 6.64048C7.62441 6.76524 7.39534 6.9142 7.1548 7.15473C6.91427 7.39535 6.76531 7.62434 6.64055 7.94526C6.5465 8.18754 6.43439 8.55164 6.40387 9.2219C6.37078 9.94681 6.36381 10.1642 6.36381 12C6.36381 13.8358 6.37078 14.0531 6.40387 14.778C6.43439 15.4484 6.5465 15.8124 6.64055 16.0547C6.76531 16.3756 6.91427 16.6046 7.1548 16.8452C7.39534 17.0857 7.62441 17.2348 7.94534 17.3594C8.18761 17.4536 8.55171 17.5656 9.22189 17.5961C9.94679 17.6293 10.1641 17.6362 12 17.6362C13.8359 17.6362 14.0533 17.6293 14.7781 17.5961C15.4484 17.5656 15.8125 17.4536 16.0547 17.3594C16.3756 17.2348 16.6046 17.0857 16.8453 16.8452C17.0858 16.6046 17.2348 16.3756 17.3595 16.0547C17.4536 15.8124 17.5657 15.4484 17.5963 14.778C17.6293 14.0531 17.6363 13.8358 17.6363 12C17.6363 10.1642 17.6293 9.94681 17.5963 9.2219C17.5657 8.55164 17.4536 8.18754 17.3595 7.94526Z" fill="#85C8FF"/>
</svg>