<svg xmlns="http://www.w3.org/2000/svg" width="24" height="24" viewBox="0 0 24 24" fill="none">
<path fill-rule="evenodd" clip-rule="evenodd" d="M18.401 16.5615H15.8255V12.4227C15.8255 11.581 15.456 10.7394 14.4726 10.7394C13.4904 10.7394 12.9742 11.581 12.9742 12.4433V16.5615H10.4908V8.92721H12.9742V10.0242C13.71 9.14033 14.3489 8.74114 15.4365 8.74114C16.5238 8.74114 18.401 9.28758 18.401 12.254V16.5615ZM7.90772 7.89962C7.09885 7.89962 6.44369 7.3059 6.44369 6.5742C6.44369 5.84242 7.09885 5.24805 7.90772 5.24805C8.71621 5.24805 9.37147 5.84242 9.37147 6.5742C9.37147 7.3059 8.71621 7.89962 7.90772 7.89962ZM6.62764 16.5615H9.20306V8.92721H6.62764V16.5615ZM12 1C5.92483 1 1 5.92492 1 12C1 18.0752 5.92483 23 12 23C18.0751 23 22.9999 18.0752 22.9999 12C22.9999 5.92492 18.0751 1 12 1Z" fill="#85C8FF"/>
</svg>