<svg xmlns="http://www.w3.org/2000/svg" width="24" height="24" viewBox="0 0 24 24" fill="none">
<g clip-path="url(#clip0_504_1971)">
<path d="M7.73633 7.15362L15.1006 16.7822H16.2286L8.94833 7.15362H7.73633Z" fill="#85C8FF"/>
<path d="M12 0.922852C5.88279 0.922852 0.923096 5.88254 0.923096 11.9998C0.923096 18.117 5.88279 23.0767 12 23.0767C18.1172 23.0767 23.0769 18.117 23.0769 11.9998C23.0769 5.88254 18.1172 0.922852 12 0.922852ZM14.5412 17.9998L11.3308 13.8053L7.66156 17.9998H5.62248L10.3791 12.5619L5.3631 5.99977H9.5631L12.4625 9.83331L15.8169 5.99977H17.8533L13.4049 11.0822L18.6379 17.9998H14.5412Z" fill="#85C8FF"/>
</g>
<defs>
<clipPath id="clip0_504_1971">
<rect width="24" height="24" fill="white"/>
</clipPath>
</defs>
</svg>