<svg xmlns="http://www.w3.org/2000/svg" width="24" height="24" viewBox="0 0 24 24" fill="none">
<path fill-rule="evenodd" clip-rule="evenodd" d="M12 1C18.0751 1 23 5.92479 23 12C23 18.0751 18.0751 23 12 23C5.92488 23 1 18.0751 1 12C1 5.92479 5.92488 1 12 1ZM13.6858 6.8964L11.9266 6.83209C11.5739 6.84378 8.9048 6.93591 7.06989 7.06861L6.92315 7.08978C6.61973 7.14242 6.13956 7.2857 5.68728 7.75922C5.37846 8.07188 5.24948 8.67587 5.20265 8.97576L5.17945 9.15366C5.17945 9.15366 5.15823 9.7629 5.14686 10.5353L5.13985 11.4274L5.14284 13.0565L5.18298 14.815C5.19686 15.0155 5.27327 15.7919 5.63824 16.1614C6.17275 16.721 6.87611 16.7033 7.18869 16.7619L7.4454 16.7825C8.11458 16.8283 9.24523 16.8584 10.2086 16.8771L12.1962 16.9021C12.9263 16.8978 15.253 16.8751 16.8913 16.7566L17.1299 16.7315C17.4433 16.6928 17.8988 16.5919 18.3097 16.1614C18.6747 15.7919 18.8428 15.0155 18.8811 14.815L18.913 14.611C18.9588 14.2867 19.0577 13.5011 19.0715 12.6826L19.0732 12.4933V11.4274L19.0675 11.069C19.0512 10.5343 19.0023 10.0222 18.96 9.65869L18.8899 9.12973C18.8899 9.12973 18.7094 8.13772 18.2881 7.71147C17.7539 7.15184 17.1551 7.10124 16.8805 7.06861L15.8338 7.00163C15.1057 6.95987 14.3411 6.92418 13.6858 6.8964ZM10.6398 9.83759L14.4356 11.818L10.6398 13.7849V9.83759Z" fill="#85C8FF"/>
</svg>