<svg xmlns="http://www.w3.org/2000/svg" viewBox="0 0 193.62 193.8"><defs><style>.cls-1{fill:#899198;}.cls-2{fill:#0b0d0e;}</style></defs><title>Recurso 2</title><g id="Capa_2" data-name="Capa 2"><g id="Capa_1-2" data-name="Capa 1"><path class="cls-1" d="M0,96.54C.08,42.07,43.06-.12,98.35,0c52.47.11,95.43,43.75,95.27,96.75-.17,53.47-43.47,97.13-96.24,97.05C42.9,193.71-.08,150.78,0,96.54ZM96.15,71.17c-10.31,0-20.63,0-30.94,0-5.73,0-6.14.6-3.32,5.52C72.28,94.89,82.81,113,93.18,131.2c2,3.6,3.39,3.85,5.56.06,10.48-18.33,21.14-36.55,31.7-54.83,2.56-4.44,2-5.22-3.35-5.25C116.78,71.14,106.46,71.17,96.15,71.17Zm.22,98.34v-.17c3.33,0,6.74-.47,10,.09,9,1.55,14.25-2.07,18.81-9.84,8-13.55,8.62-8.31.07-23-2.34-4-3.81-3.9-6.12,0-2.61,4.44-5.37,8.8-7.76,13.34-1.72,3.27-4.15,4.38-7.7,4.22a91.74,91.74,0,0,0-14,.07c-4.57.51-7.19-1.27-9.2-5.09-2.41-4.56-5.12-8.95-7.69-13.42-1.38-2.41-2.82-3.37-4.63-.35-2,3.28-4,6.53-6,9.8-1.31,2.14-.78,4.07.53,6,3.15,4.7,6.34,9.38,9.29,14.2,1.88,3.08,4.42,4.19,7.9,4.1C85.38,169.41,90.88,169.51,96.37,169.51Zm-33-113.9c4.43,0,7.76,0,11.08,0,2.89-.06,3.49-1.42,2-3.85-2-3.43-4-6.88-6.09-10.31-1.56-2.62-3.88-3.28-6.83-2.93-4.94.61-9.91,1.11-14.89,1.36A7.46,7.46,0,0,0,42,44.05C37.79,51.44,34,59.12,29,66c-5.9,8.14-6.61,15.2-1.52,24.41,3.81,6.87,7.31,10.34,15.35,9.62s8.2-.21,4.48-7.27a19.28,19.28,0,0,0-1.88-3.51c-6.68-8-5-15.15.12-23.72C50.32,57.56,55.19,53.2,63.4,55.61Zm65.35,0v-.16a37.14,37.14,0,0,0,6-.05c5.3-.87,8.33,1.46,10.53,6.13a106.39,106.39,0,0,0,7.06,12,6.79,6.79,0,0,1,.11,7.89c-2.78,4.73-5.34,9.59-8,14.4-1.5,2.71-.74,4,2.41,4,3.49,0,7-.07,10.48,0,2.68.07,4.3-1.12,5.41-3.52q3.36-7.25,7-14.33a6.69,6.69,0,0,0-.08-7q-9.12-15.48-18.07-31c-1.34-2.31-3-3.79-5.86-4-5.64-.36-11.27-.91-16.89-1.46a5.13,5.13,0,0,0-5.44,2.67c-2.08,3.59-4.16,7.19-6.3,10.75-1.58,2.63-.62,3.68,2.15,3.7C122.43,55.64,125.59,55.62,128.75,55.62Z"/><path class="cls-2" d="M96.15,71.17c10.31,0,20.63,0,30.94,0,5.39,0,5.91.81,3.35,5.25-10.56,18.28-21.22,36.5-31.7,54.83-2.17,3.79-3.51,3.54-5.56-.06C82.81,113,72.28,94.89,61.89,76.7c-2.82-4.92-2.41-5.5,3.32-5.52C75.52,71.14,85.84,71.17,96.15,71.17Z"/><path class="cls-2" d="M96.37,169.51c-5.49,0-11-.1-16.48,0-3.48.09-6-1-7.9-4.1-2.95-4.82-6.14-9.5-9.29-14.2-1.31-2-1.84-3.89-.53-6,2-3.27,4-6.52,6-9.8,1.81-3,3.25-2.06,4.63.35,2.57,4.47,5.28,8.86,7.69,13.42,2,3.82,4.63,5.6,9.2,5.09a91.74,91.74,0,0,1,14-.07c3.55.16,6-1,7.7-4.22,2.39-4.54,5.15-8.9,7.76-13.34,2.31-3.93,3.78-4,6.12,0,8.55,14.66,7.89,9.42-.07,23-4.56,7.77-9.86,11.39-18.81,9.84-3.23-.56-6.64-.09-10-.09Z"/><path class="cls-2" d="M63.4,55.61c-8.21-2.41-13.08,2-17.82,9.87-5.13,8.57-6.8,15.72-.12,23.72a19.28,19.28,0,0,1,1.88,3.51c3.72,7.06,3.67,6.53-4.48,7.27s-11.54-2.75-15.35-9.62C22.42,81.15,23.13,74.09,29,66,34,59.12,37.79,51.44,42,44.05a7.46,7.46,0,0,1,6.76-4.18c5-.25,9.95-.75,14.89-1.36,2.95-.35,5.27.31,6.83,2.93,2,3.43,4,6.88,6.09,10.31,1.45,2.43.85,3.79-2,3.85C71.16,55.66,67.83,55.61,63.4,55.61Z"/><path class="cls-2" d="M128.75,55.62c-3.16,0-6.32,0-9.48,0-2.77,0-3.73-1.07-2.15-3.7,2.14-3.56,4.22-7.16,6.3-10.75a5.13,5.13,0,0,1,5.44-2.67c5.62.55,11.25,1.1,16.89,1.46,2.85.18,4.52,1.66,5.86,4q9,15.54,18.07,31a6.69,6.69,0,0,1,.08,7q-3.64,7.1-7,14.33c-1.11,2.4-2.73,3.59-5.41,3.52-3.49-.1-7-.08-10.48,0-3.15,0-3.91-1.26-2.41-4,2.64-4.81,5.2-9.67,8-14.4a6.79,6.79,0,0,0-.11-7.89,106.39,106.39,0,0,1-7.06-12c-2.2-4.67-5.23-7-10.53-6.13a37.14,37.14,0,0,1-6,.05Z"/></g></g></svg>